<?xml version="1.0" encoding="UTF-8"?>
<svg width="498px" height="440px" viewBox="0 0 498 440" version="1.1" xmlns="http://www.w3.org/2000/svg" xmlns:xlink="http://www.w3.org/1999/xlink">
    <!-- Generator: Sketch 50.2 (55047) - http://www.bohemiancoding.com/sketch -->
    <title>diagram1: Planning process</title>
    <desc>Created with Sketch.</desc>
    <defs></defs>
    <g id="Page-1" stroke="none" stroke-width="1" fill="none" fill-rule="evenodd">
        <g id="Artboard" transform="translate(-92.000000, -96.000000)">
            <g id="diagram1:-Planning-process" transform="translate(92.000000, 96.000000)">
                <polygon id="Line-2" fill="#EEEEFF" fill-rule="nonzero" points="176 39 176 41 116 41 116 39"></polygon>
                <polygon id="Line-2" fill="#EEEEFF" fill-rule="nonzero" transform="translate(117.000000, 220.000000) rotate(90.000000) translate(-117.000000, -220.000000) " points="298 219 298 221 -64 221 -64 219"></polygon>
                <polygon id="Line-2" fill="#EEEEFF" fill-rule="nonzero" points="176 159 176 161 116 161 116 159"></polygon>
                <polygon id="Line-2" fill="#EEEEFF" fill-rule="nonzero" points="117 219 117 221 79 221 79 219"></polygon>
                <polygon id="Line-2" fill="#EEEEFF" fill-rule="nonzero" points="176 279 176 281 116 281 116 279"></polygon>
                <polygon id="Line-2" fill="#EEEEFF" fill-rule="nonzero" points="176 399 176 401 116 401 116 399"></polygon>
                <g id="Store-&amp;-Product-selection" transform="translate(176.000000, 360.000000)">
                    <rect id="white-rect" fill="#FFFFFF" x="0" y="0" width="322" height="80" rx="10"></rect>
                    <path d="M49.918,45.146 C49.6059984,44.7619981 49.45,44.4170015 49.45,44.111 C49.45,43.8049985 49.7079974,43.4000025 50.224,42.896 C50.5240015,42.6079986 50.8419983,42.464 51.178,42.464 C51.5140017,42.464 51.981997,42.763997 52.582,43.364 C52.7500008,43.568001 52.9899984,43.7629991 53.302,43.949 C53.6140016,44.1350009 53.9019987,44.228 54.166,44.228 C55.2820056,44.228 55.84,43.7720046 55.84,42.86 C55.84,42.5839986 55.6870015,42.3530009 55.381,42.167 C55.0749985,41.9809991 54.6940023,41.8460004 54.238,41.762 C53.7819977,41.6779996 53.2900026,41.5430009 52.762,41.357 C52.2339974,41.1709991 51.7420023,40.9520013 51.286,40.7 C50.8299977,40.4479987 50.4490015,40.0490027 50.143,39.503 C49.8369985,38.9569973 49.684,38.3000038 49.684,37.532 C49.684,36.4759947 50.0769961,35.5550039 50.863,34.769 C51.6490039,33.9829961 52.7199932,33.59 54.076,33.59 C54.7960036,33.59 55.452997,33.6829991 56.047,33.869 C56.641003,34.0550009 57.0519989,34.243999 57.28,34.436 L57.73,34.778 C58.1020019,35.1260017 58.288,35.4199988 58.288,35.66 C58.288,35.9000012 58.1440014,36.2299979 57.856,36.65 C57.447998,37.250003 57.0280022,37.55 56.596,37.55 C56.3439987,37.55 56.0320019,37.4300012 55.66,37.19 C55.6239998,37.1659999 55.5550005,37.1060005 55.453,37.01 C55.3509995,36.9139995 55.2580004,36.8360003 55.174,36.776 C54.9219987,36.6199992 54.6010019,36.542 54.211,36.542 C53.8209981,36.542 53.4970013,36.6349991 53.239,36.821 C52.9809987,37.0070009 52.852,37.2649983 52.852,37.595 C52.852,37.9250016 53.0049985,38.191999 53.311,38.396 C53.6170015,38.600001 53.9979977,38.7379996 54.454,38.81 C54.9100023,38.8820004 55.4079973,38.9929992 55.948,39.143 C56.4880027,39.2930007 56.9859977,39.4759989 57.442,39.692 C57.8980023,39.9080011 58.2789985,40.2829973 58.585,40.817 C58.8910015,41.3510027 59.044,42.0079961 59.044,42.788 C59.044,43.5680039 58.8880016,44.254997 58.576,44.849 C58.2639984,45.443003 57.8560025,45.9019984 57.352,46.226 C56.3799951,46.8620032 55.3420055,47.18 54.238,47.18 C53.6739972,47.18 53.1400025,47.1110007 52.636,46.973 C52.1319975,46.8349993 51.7240016,46.664001 51.412,46.46 C50.7759968,46.0759981 50.3320013,45.7040018 50.08,45.344 L49.918,45.146 Z M65.722,40.7 L64.552,40.628 L64.552,43.112 C64.552,43.4360016 64.6029995,43.6699993 64.705,43.814 C64.8070005,43.9580007 64.9989986,44.03 65.281,44.03 C65.5630014,44.03 65.7789992,44.0389999 65.929,44.057 C66.0790008,44.0750001 66.2379992,44.1319995 66.406,44.228 C66.6820014,44.3840008 66.82,44.7859968 66.82,45.434 C66.82,46.1900038 66.6520017,46.6519992 66.316,46.82 C66.1359991,46.9040004 65.9770007,46.9549999 65.839,46.973 C65.7009993,46.9910001 65.5000013,47 65.236,47 C63.9879938,47 63.0400032,46.7180028 62.392,46.154 C61.7439968,45.5899972 61.42,44.6360067 61.42,43.292 L61.42,40.628 C61.1919989,40.6640002 60.9460013,40.682 60.682,40.682 C60.4179987,40.682 60.1990009,40.580001 60.025,40.376 C59.8509991,40.171999 59.764,39.8240025 59.764,39.332 C59.764,38.8399975 59.7939997,38.4830011 59.854,38.261 C59.9140003,38.0389989 59.9979995,37.8800005 60.106,37.784 C60.298001,37.6279992 60.5379986,37.55 60.826,37.55 L61.42,37.622 L61.42,35.768 C61.42,35.4919986 61.4289999,35.2880007 61.447,35.156 C61.4650001,35.0239993 61.5219995,34.8800008 61.618,34.724 C61.7740008,34.4239985 62.2359962,34.274 63.004,34.274 C63.8200041,34.274 64.3059992,34.4959978 64.462,34.94 C64.5220003,35.132001 64.552,35.4379979 64.552,35.858 L64.552,37.622 C65.0800026,37.5739998 65.4789986,37.55 65.749,37.55 C66.0190013,37.55 66.2229993,37.5589999 66.361,37.577 C66.4990007,37.5950001 66.6579991,37.6519995 66.838,37.748 C67.1500016,37.9040008 67.306,38.3659962 67.306,39.134 C67.306,39.8900038 67.1440016,40.3519992 66.82,40.52 C66.6399991,40.6040004 66.4810007,40.6549999 66.343,40.673 C66.2049993,40.6910001 65.9980014,40.7 65.722,40.7 Z M69.538,38.702 C70.546005,37.7659953 71.6979935,37.298 72.994,37.298 C74.2900065,37.298 75.435995,37.7629953 76.432,38.693 C77.428005,39.6230046 77.926,40.8079928 77.926,42.248 C77.926,43.244005 77.6680026,44.1289961 77.152,44.903 C76.6359974,45.6770039 76.0090037,46.2469982 75.271,46.613 C74.5329963,46.9790018 73.768004,47.162 72.976,47.162 C72.183996,47.162 71.4160037,46.9670019 70.672,46.577 C69.9279963,46.186998 69.3010025,45.6110038 68.791,44.849 C68.2809975,44.0869962 68.026,43.2260048 68.026,42.266 C68.026,40.8259928 68.529995,39.6380047 69.538,38.702 Z M72.958,43.994 C73.354002,43.994 73.749998,43.8440015 74.146,43.544 C74.542002,43.2439985 74.74,42.8000029 74.74,42.212 C74.74,41.6239971 74.5540019,41.1860014 74.182,40.898 C73.8099981,40.6099986 73.4080022,40.466 72.976,40.466 C72.5439978,40.466 72.1420019,40.6159985 71.77,40.916 C71.3979981,41.2160015 71.212,41.6569971 71.212,42.239 C71.212,42.8210029 71.4039981,43.2589985 71.788,43.553 C72.1720019,43.8470015 72.561998,43.994 72.958,43.994 Z M82.228,38.5219791 C82.228,38.521986 82.228,38.521993 82.228,38.522 C82.2293941,38.5200483 82.2308028,38.5180868 82.232226,38.5161156 L82.228,38.5219791 Z M82.232226,38.5161156 C82.2920577,38.43325 82.3776482,38.3332124 82.489,38.216 C82.6030006,38.0959994 82.8459981,37.934001 83.218,37.73 C83.5900019,37.525999 83.9169986,37.424 84.199,37.424 C84.4810014,37.424 84.717999,37.4389999 84.91,37.469 C85.102001,37.4990002 85.3119989,37.5499996 85.54,37.622 C85.7680011,37.6940004 85.9569992,37.8169991 86.107,37.991 C86.2570008,38.1650009 86.332,38.4439981 86.332,38.828 C86.332,39.2120019 86.2180011,39.6319977 85.99,40.088 C85.7619989,40.5440023 85.4320022,40.772 85,40.772 C84.7839989,40.772 84.577001,40.7240005 84.379,40.628 C84.180999,40.5319995 83.9200016,40.484 83.596,40.484 C83.2719984,40.484 82.9690014,40.5979989 82.687,40.826 C82.4049986,41.0540011 82.264,41.3299984 82.264,41.654 L82.264,45.434 C82.264,45.7100014 82.2550001,45.9169993 82.237,46.055 C82.2189999,46.1930007 82.1620005,46.3519991 82.066,46.532 C81.8859991,46.8440016 81.4180038,47 80.662,47 C80.0859971,47 79.6720013,46.898001 79.42,46.694 C79.227999,46.5259992 79.1200001,46.2680017 79.096,45.92 L79.096,39.08 C79.096,38.8039986 79.1049999,38.5970007 79.123,38.459 C79.1410001,38.3209993 79.1919996,38.1680008 79.276,38 C79.4440008,37.6759984 79.9119962,37.514 80.68,37.514 C81.4000036,37.514 81.8499991,37.6519986 82.03,37.928 C82.1619961,38.1199944 82.2279955,38.3179854 82.228,38.5219791 L82.232226,38.5161156 Z M95.917,42.761 C95.5509982,43.1150018 95.1460022,43.292 94.702,43.292 L90.436,43.292 C90.436,43.6280017 90.633998,43.9099989 91.03,44.138 C91.426002,44.3660011 91.821998,44.48 92.218,44.48 C92.9140035,44.48 93.459998,44.4080007 93.856,44.264 L94.054,44.192 C94.3420014,44.0599993 94.581999,43.994 94.774,43.994 C95.1580019,43.994 95.4879986,44.2639973 95.764,44.804 C95.9200008,45.1280016 95.998,45.4039989 95.998,45.632 C95.998,46.7000053 94.7200128,47.234 92.164,47.234 C91.2759956,47.234 90.4870035,47.0810015 89.797,46.775 C89.1069965,46.4689985 88.5700019,46.0640025 88.186,45.56 C87.4299962,44.5879951 87.052,43.502006 87.052,42.302 C87.052,40.7899924 87.5409951,39.5810045 88.519,38.675 C89.4970049,37.7689955 90.7179927,37.316 92.182,37.316 C93.8500083,37.316 95.0739961,37.9039941 95.854,39.08 C96.262002,39.7040031 96.466,40.3849963 96.466,41.123 C96.466,41.8610037 96.2830018,42.4069982 95.917,42.761 Z M92.668,41.654 C93.1240023,41.654 93.352,41.4620019 93.352,41.078 C93.352,40.8019986 93.2470011,40.5800008 93.037,40.412 C92.826999,40.2439992 92.5270019,40.16 92.137,40.16 C91.7469981,40.16 91.3600019,40.3189984 90.976,40.637 C90.5919981,40.9550016 90.4,41.2939982 90.4,41.654 L92.668,41.654 Z M113.098,47.018 C112.053995,47.018 111.022005,46.7480027 110.002,46.208 C108.861994,46.8320031 107.710006,47.144 106.546,47.144 C103.461985,47.144 101.92,45.8600128 101.92,43.292 C101.92,41.9599933 102.609993,40.7240057 103.99,39.584 C103.509998,38.5159947 103.27,37.5500043 103.27,36.686 C103.27,35.485994 103.629996,34.5980029 104.35,34.022 C105.070004,33.4459971 106.035994,33.158 107.248,33.158 C108.460006,33.158 109.377997,33.4459971 110.002,34.022 C110.626003,34.5980029 110.938,35.383995 110.938,36.38 C110.938,37.2200042 110.596003,37.9759966 109.912,38.648 C109.407997,39.1520025 108.700005,39.7099969 107.788,40.322 C108.496004,41.2580047 109.263996,42.0499968 110.092,42.698 C110.428002,42.1819974 110.661999,41.6540027 110.794,41.114 C110.914001,40.5859974 111.453995,40.322 112.414,40.322 C112.822002,40.322 113.130999,40.3759995 113.341,40.484 C113.551001,40.5920005 113.671,40.7029994 113.701,40.817 C113.731,40.9310006 113.74,41.0779991 113.728,41.258 C113.68,42.1700046 113.308003,43.0759955 112.612,43.976 C112.792001,44.0120002 112.959999,44.03 113.116,44.03 C114.052005,44.03 114.52,44.5039953 114.52,45.452 C114.52,46.1120033 114.412001,46.537999 114.196,46.73 C113.979999,46.922001 113.614003,47.018 113.098,47.018 Z M106.114,36.47 C106.114,36.9020022 106.215999,37.3879973 106.42,37.928 C106.984003,37.5679982 107.406999,37.2680012 107.689,37.028 C107.971001,36.7879988 108.112,36.5600011 108.112,36.344 C108.112,35.8159974 107.818003,35.552 107.23,35.552 C106.485996,35.552 106.114,35.8579969 106.114,36.47 Z M106.672,44.48 C106.972002,44.48 107.241999,44.4560002 107.482,44.408 C106.785997,43.7839969 106.126003,43.0400043 105.502,42.176 C105.225999,42.5240017 105.088,42.8839981 105.088,43.256 C105.088,44.0720041 105.615995,44.48 106.672,44.48 Z M130.414,38.594 C130.414,39.3740039 130.258002,40.0789968 129.946,40.709 C129.633998,41.3390031 129.232002,41.8399981 128.74,42.212 C127.743995,42.9800038 126.712005,43.364 125.644,43.364 L123.394,43.364 L123.394,45.398 C123.394,45.6740014 123.385,45.8809993 123.367,46.019 C123.349,46.1570007 123.292,46.3159991 123.196,46.496 C123.027999,46.8200016 122.560004,46.982 121.792,46.982 C120.951996,46.982 120.460001,46.7600022 120.316,46.316 C120.244,46.111999 120.208,45.8000021 120.208,45.38 L120.208,35.39 C120.208,35.1139986 120.217,34.9070007 120.235,34.769 C120.253,34.6309993 120.31,34.4720009 120.406,34.292 C120.574001,33.9679984 121.041996,33.806 121.81,33.806 L125.662,33.806 C126.718005,33.806 127.743995,34.1899962 128.74,34.958 C129.232002,35.3300019 129.633998,35.8339968 129.946,36.47 C130.258002,37.1060032 130.414,37.8139961 130.414,38.594 Z M126.724,39.782 C127.072002,39.5179987 127.246,39.1220026 127.246,38.594 C127.246,38.0659974 127.072002,37.6670013 126.724,37.397 C126.375998,37.1269986 126.016002,36.992 125.644,36.992 L123.394,36.992 L123.394,40.178 L125.662,40.178 C126.022002,40.178 126.375998,40.0460013 126.724,39.782 Z M134.716,38.5219791 C134.716,38.521986 134.716,38.521993 134.716,38.522 C134.717394,38.5200483 134.718803,38.5180868 134.720226,38.5161156 L134.716,38.5219791 Z M134.720226,38.5161156 C134.780058,38.43325 134.865648,38.3332124 134.977,38.216 C135.091001,38.0959994 135.333998,37.934001 135.706,37.73 C136.078002,37.525999 136.404999,37.424 136.687,37.424 C136.969001,37.424 137.205999,37.4389999 137.398,37.469 C137.590001,37.4990002 137.799999,37.5499996 138.028,37.622 C138.256001,37.6940004 138.444999,37.8169991 138.595,37.991 C138.745001,38.1650009 138.82,38.4439981 138.82,38.828 C138.82,39.2120019 138.706001,39.6319977 138.478,40.088 C138.249999,40.5440023 137.920002,40.772 137.488,40.772 C137.271999,40.772 137.065001,40.7240005 136.867,40.628 C136.668999,40.5319995 136.408002,40.484 136.084,40.484 C135.759998,40.484 135.457001,40.5979989 135.175,40.826 C134.892999,41.0540011 134.752,41.3299984 134.752,41.654 L134.752,45.434 C134.752,45.7100014 134.743,45.9169993 134.725,46.055 C134.707,46.1930007 134.65,46.3519991 134.554,46.532 C134.373999,46.8440016 133.906004,47 133.15,47 C132.573997,47 132.160001,46.898001 131.908,46.694 C131.715999,46.5259992 131.608,46.2680017 131.584,45.92 L131.584,39.08 C131.584,38.8039986 131.593,38.5970007 131.611,38.459 C131.629,38.3209993 131.68,38.1680008 131.764,38 C131.932001,37.6759984 132.399996,37.514 133.168,37.514 C133.888004,37.514 134.337999,37.6519986 134.518,37.928 C134.649996,38.1199944 134.715995,38.3179854 134.716,38.5219791 L134.720226,38.5161156 Z M141.052,38.702 C142.060005,37.7659953 143.211994,37.298 144.508,37.298 C145.804006,37.298 146.949995,37.7629953 147.946,38.693 C148.942005,39.6230046 149.44,40.8079928 149.44,42.248 C149.44,43.244005 149.182003,44.1289961 148.666,44.903 C148.149997,45.6770039 147.523004,46.2469982 146.785,46.613 C146.046996,46.9790018 145.282004,47.162 144.49,47.162 C143.697996,47.162 142.930004,46.9670019 142.186,46.577 C141.441996,46.186998 140.815003,45.6110038 140.305,44.849 C139.794997,44.0869962 139.54,43.2260048 139.54,42.266 C139.54,40.8259928 140.043995,39.6380047 141.052,38.702 Z M144.472,43.994 C144.868002,43.994 145.263998,43.8440015 145.66,43.544 C146.056002,43.2439985 146.254,42.8000029 146.254,42.212 C146.254,41.6239971 146.068002,41.1860014 145.696,40.898 C145.323998,40.6099986 144.922002,40.466 144.49,40.466 C144.057998,40.466 143.656002,40.6159985 143.284,40.916 C142.911998,41.2160015 142.726,41.6569971 142.726,42.239 C142.726,42.8210029 142.917998,43.2589985 143.302,43.553 C143.686002,43.8470015 144.075998,43.994 144.472,43.994 Z M157.45,33.194 C157.678001,33.1219996 157.980998,33.086 158.359,33.086 C158.737002,33.086 159.039999,33.1219996 159.268,33.194 C159.496001,33.2660004 159.655,33.3919991 159.745,33.572 C159.835,33.7520009 159.889,33.9109993 159.907,34.049 C159.925,34.1870007 159.934,34.3939986 159.934,34.67 L159.934,45.416 C159.934,45.6920014 159.925,45.8989993 159.907,46.037 C159.889,46.1750007 159.832,46.3279992 159.736,46.496 C159.555999,46.8200016 159.049004,46.982 158.215,46.982 C157.380996,46.982 156.916,46.6880029 156.82,46.1 C156.315997,46.6760029 155.614005,46.964 154.714,46.964 C153.633995,46.964 152.650004,46.4930047 151.762,45.551 C150.873996,44.6089953 150.43,43.5110063 150.43,42.257 C150.43,41.0029937 150.876996,39.9020047 151.771,38.954 C152.665004,38.0059953 153.645995,37.532 154.714,37.532 C155.602004,37.532 156.291998,37.831997 156.784,38.432 L156.784,34.652 C156.784,34.3759986 156.793,34.1690007 156.811,34.031 C156.829,33.8929993 156.883,33.7370009 156.973,33.563 C157.063,33.3889991 157.221999,33.2660004 157.45,33.194 Z M155.182,43.832 C155.626002,43.832 155.994999,43.6700016 156.289,43.346 C156.583001,43.0219984 156.73,42.665002 156.73,42.275 C156.73,41.884998 156.589001,41.5220017 156.307,41.186 C156.024999,40.8499983 155.644002,40.682 155.164,40.682 C154.683998,40.682 154.300001,40.8469983 154.012,41.177 C153.723999,41.5070016 153.58,41.869998 153.58,42.266 C153.58,42.662002 153.735998,43.0219984 154.048,43.346 C154.360002,43.6700016 154.737998,43.832 155.182,43.832 Z M167.724133,45.8186274 C167.674341,45.9022669 167.567631,46.0200567 167.404,46.172 C167.235999,46.3280008 167.074001,46.4599995 166.918,46.568 C166.509998,46.8320013 166.066002,46.964 165.586,46.964 C164.373994,46.964 163.369004,46.5050046 162.571,45.587 C161.772996,44.6689954 161.374,43.5500066 161.374,42.23 L161.374,39.08 C161.374,38.7919986 161.383,38.5820007 161.401,38.45 C161.419,38.3179993 161.47,38.1620009 161.554,37.982 C161.722001,37.6579984 162.189996,37.496 162.958,37.496 C163.798004,37.496 164.289999,37.7239977 164.434,38.18 C164.506,38.372001 164.542,38.6779979 164.542,39.098 L164.542,42.248 C164.542,42.7400025 164.682999,43.1239986 164.965,43.4 C165.247001,43.6760014 165.624998,43.814 166.099,43.814 C166.573002,43.814 166.956999,43.6700014 167.251,43.382 C167.545001,43.0939986 167.692,42.7160023 167.692,42.248 L167.692,39.062 C167.692,38.7859986 167.701,38.5790007 167.719,38.441 C167.737,38.3029993 167.794,38.1440009 167.89,37.964 C168.046001,37.6519984 168.507996,37.496 169.276,37.496 C170.032004,37.496 170.493999,37.6579984 170.662,37.982 C170.746,38.1620009 170.797,38.3209993 170.815,38.459 C170.833,38.5970007 170.842,38.8039986 170.842,39.08 L170.842,45.452 C170.842,45.7160013 170.833,45.9169993 170.815,46.055 C170.797,46.1930007 170.74,46.3459992 170.644,46.514 C170.463999,46.8260016 170.002004,46.982 169.258,46.982 C168.525996,46.982 168.076001,46.8380014 167.908,46.55 C167.788012,46.3460197 167.728012,46.1000514 167.728,45.8120877 L167.724133,45.8186274 Z M175.756,43.445 C176.092002,43.7270014 176.448998,43.868 176.827,43.868 C177.205002,43.868 177.558998,43.7570011 177.889,43.535 C178.219002,43.3129989 178.485999,43.202 178.69,43.202 C179.050002,43.202 179.487997,43.5199968 180.004,44.156 C180.280001,44.5040017 180.418,44.8159986 180.418,45.092 C180.418,45.5480023 180.088003,45.973998 179.428,46.37 C178.743997,46.8500024 177.904005,47.09 176.908,47.09 C175.791994,47.09 174.718005,46.688004 173.686,45.884 C173.193998,45.4999981 172.792002,44.9870032 172.48,44.345 C172.167998,43.7029968 172.012,42.9950039 172.012,42.221 C172.012,41.4469961 172.167998,40.7450032 172.48,40.115 C172.792002,39.4849969 173.193998,38.9780019 173.686,38.594 C174.682005,37.801996 175.743994,37.406 176.872,37.406 C177.328002,37.406 177.771998,37.4689994 178.204,37.595 C178.636002,37.7210006 178.953999,37.8439994 179.158,37.964 L179.446,38.144 C179.662001,38.2880007 179.829999,38.4019996 179.95,38.486 C180.262002,38.7260012 180.418,38.9989985 180.418,39.305 C180.418,39.6110015 180.292001,39.9559981 180.04,40.34 C179.607998,41.0000033 179.194002,41.33 178.798,41.33 C178.569999,41.33 178.246002,41.1980013 177.826,40.934 C177.609999,40.729999 177.301002,40.628 176.899,40.628 C176.496998,40.628 176.122002,40.7719986 175.774,41.06 C175.425998,41.3480014 175.252,41.7469974 175.252,42.257 C175.252,42.7670026 175.419998,43.1629986 175.756,43.445 Z M187.096,40.7 L185.926,40.628 L185.926,43.112 C185.926,43.4360016 185.976999,43.6699993 186.079,43.814 C186.181001,43.9580007 186.372999,44.03 186.655,44.03 C186.937001,44.03 187.152999,44.0389999 187.303,44.057 C187.453001,44.0750001 187.611999,44.1319995 187.78,44.228 C188.056001,44.3840008 188.194,44.7859968 188.194,45.434 C188.194,46.1900038 188.026002,46.6519992 187.69,46.82 C187.509999,46.9040004 187.351001,46.9549999 187.213,46.973 C187.074999,46.9910001 186.874001,47 186.61,47 C185.361994,47 184.414003,46.7180028 183.766,46.154 C183.117997,45.5899972 182.794,44.6360067 182.794,43.292 L182.794,40.628 C182.565999,40.6640002 182.320001,40.682 182.056,40.682 C181.791999,40.682 181.573001,40.580001 181.399,40.376 C181.224999,40.171999 181.138,39.8240025 181.138,39.332 C181.138,38.8399975 181.168,38.4830011 181.228,38.261 C181.288,38.0389989 181.371999,37.8800005 181.48,37.784 C181.672001,37.6279992 181.911999,37.55 182.2,37.55 L182.794,37.622 L182.794,35.768 C182.794,35.4919986 182.803,35.2880007 182.821,35.156 C182.839,35.0239993 182.896,34.8800008 182.992,34.724 C183.148001,34.4239985 183.609996,34.274 184.378,34.274 C185.194004,34.274 185.679999,34.4959978 185.836,34.94 C185.896,35.132001 185.926,35.4379979 185.926,35.858 L185.926,37.622 C186.454003,37.5739998 186.852999,37.55 187.123,37.55 C187.393001,37.55 187.596999,37.5589999 187.735,37.577 C187.873001,37.5950001 188.031999,37.6519995 188.212,37.748 C188.524002,37.9040008 188.68,38.3659962 188.68,39.134 C188.68,39.8900038 188.518002,40.3519992 188.194,40.52 C188.013999,40.6040004 187.855001,40.6549999 187.717,40.673 C187.578999,40.6910001 187.372001,40.7 187.096,40.7 Z M194.422,45.146 C194.109998,44.7619981 193.954,44.4170015 193.954,44.111 C193.954,43.8049985 194.211997,43.4000025 194.728,42.896 C195.028002,42.6079986 195.345998,42.464 195.682,42.464 C196.018002,42.464 196.485997,42.763997 197.086,43.364 C197.254001,43.568001 197.493998,43.7629991 197.806,43.949 C198.118002,44.1350009 198.405999,44.228 198.67,44.228 C199.786006,44.228 200.344,43.7720046 200.344,42.86 C200.344,42.5839986 200.191002,42.3530009 199.885,42.167 C199.578998,41.9809991 199.198002,41.8460004 198.742,41.762 C198.285998,41.6779996 197.794003,41.5430009 197.266,41.357 C196.737997,41.1709991 196.246002,40.9520013 195.79,40.7 C195.333998,40.4479987 194.953002,40.0490027 194.647,39.503 C194.340998,38.9569973 194.188,38.3000038 194.188,37.532 C194.188,36.4759947 194.580996,35.5550039 195.367,34.769 C196.153004,33.9829961 197.223993,33.59 198.58,33.59 C199.300004,33.59 199.956997,33.6829991 200.551,33.869 C201.145003,34.0550009 201.555999,34.243999 201.784,34.436 L202.234,34.778 C202.606002,35.1260017 202.792,35.4199988 202.792,35.66 C202.792,35.9000012 202.648001,36.2299979 202.36,36.65 C201.951998,37.250003 201.532002,37.55 201.1,37.55 C200.847999,37.55 200.536002,37.4300012 200.164,37.19 C200.128,37.1659999 200.059001,37.1060005 199.957,37.01 C199.854999,36.9139995 199.762,36.8360003 199.678,36.776 C199.425999,36.6199992 199.105002,36.542 198.715,36.542 C198.324998,36.542 198.001001,36.6349991 197.743,36.821 C197.484999,37.0070009 197.356,37.2649983 197.356,37.595 C197.356,37.9250016 197.508998,38.191999 197.815,38.396 C198.121002,38.600001 198.501998,38.7379996 198.958,38.81 C199.414002,38.8820004 199.911997,38.9929992 200.452,39.143 C200.992003,39.2930007 201.489998,39.4759989 201.946,39.692 C202.402002,39.9080011 202.782998,40.2829973 203.089,40.817 C203.395002,41.3510027 203.548,42.0079961 203.548,42.788 C203.548,43.5680039 203.392002,44.254997 203.08,44.849 C202.767998,45.443003 202.360003,45.9019984 201.856,46.226 C200.883995,46.8620032 199.846006,47.18 198.742,47.18 C198.177997,47.18 197.644003,47.1110007 197.14,46.973 C196.635997,46.8349993 196.228002,46.664001 195.916,46.46 C195.279997,46.0759981 194.836001,45.7040018 194.584,45.344 L194.422,45.146 Z M213.313,42.761 C212.946998,43.1150018 212.542002,43.292 212.098,43.292 L207.832,43.292 C207.832,43.6280017 208.029998,43.9099989 208.426,44.138 C208.822002,44.3660011 209.217998,44.48 209.614,44.48 C210.310003,44.48 210.855998,44.4080007 211.252,44.264 L211.45,44.192 C211.738001,44.0599993 211.977999,43.994 212.17,43.994 C212.554002,43.994 212.883999,44.2639973 213.16,44.804 C213.316001,45.1280016 213.394,45.4039989 213.394,45.632 C213.394,46.7000053 212.116013,47.234 209.56,47.234 C208.671996,47.234 207.883003,47.0810015 207.193,46.775 C206.502997,46.4689985 205.966002,46.0640025 205.582,45.56 C204.825996,44.5879951 204.448,43.502006 204.448,42.302 C204.448,40.7899924 204.936995,39.5810045 205.915,38.675 C206.893005,37.7689955 208.113993,37.316 209.578,37.316 C211.246008,37.316 212.469996,37.9039941 213.25,39.08 C213.658002,39.7040031 213.862,40.3849963 213.862,41.123 C213.862,41.8610037 213.679002,42.4069982 213.313,42.761 Z M210.064,41.654 C210.520002,41.654 210.748,41.4620019 210.748,41.078 C210.748,40.8019986 210.643001,40.5800008 210.433,40.412 C210.222999,40.2439992 209.923002,40.16 209.533,40.16 C209.142998,40.16 208.756002,40.3189984 208.372,40.637 C207.987998,40.9550016 207.796,41.2939982 207.796,41.654 L210.064,41.654 Z M215.032,34.634 C215.032,34.3579986 215.041,34.1510007 215.059,34.013 C215.077,33.8749993 215.128,33.7160009 215.212,33.536 C215.380001,33.2119984 215.847996,33.05 216.616,33.05 C217.348004,33.05 217.803999,33.2119984 217.984,33.536 C218.08,33.7160009 218.137,33.8779993 218.155,34.022 C218.173,34.1660007 218.182,34.3759986 218.182,34.652 L218.182,42.986 C218.182,43.4180022 218.218,43.6909994 218.29,43.805 C218.362,43.9190006 218.520999,43.976 218.767,43.976 C219.013001,43.976 219.178,43.9849999 219.262,44.003 C219.346,44.0210001 219.447999,44.0719996 219.568,44.156 C219.808001,44.3120008 219.928,44.7379965 219.928,45.434 C219.928,46.1900038 219.808001,46.6519992 219.568,46.82 C219.255998,47.0360011 218.512006,47.0720007 217.336,46.928 C216.411995,46.8079994 215.812001,46.5020025 215.536,46.01 C215.199998,45.4219971 215.032,44.4860064 215.032,43.202 L215.032,34.634 Z M229.513,42.761 C229.146998,43.1150018 228.742002,43.292 228.298,43.292 L224.032,43.292 C224.032,43.6280017 224.229998,43.9099989 224.626,44.138 C225.022002,44.3660011 225.417998,44.48 225.814,44.48 C226.510003,44.48 227.055998,44.4080007 227.452,44.264 L227.65,44.192 C227.938001,44.0599993 228.177999,43.994 228.37,43.994 C228.754002,43.994 229.083999,44.2639973 229.36,44.804 C229.516001,45.1280016 229.594,45.4039989 229.594,45.632 C229.594,46.7000053 228.316013,47.234 225.76,47.234 C224.871996,47.234 224.083003,47.0810015 223.393,46.775 C222.702997,46.4689985 222.166002,46.0640025 221.782,45.56 C221.025996,44.5879951 220.648,43.502006 220.648,42.302 C220.648,40.7899924 221.136995,39.5810045 222.115,38.675 C223.093005,37.7689955 224.313993,37.316 225.778,37.316 C227.446008,37.316 228.669996,37.9039941 229.45,39.08 C229.858002,39.7040031 230.062,40.3849963 230.062,41.123 C230.062,41.8610037 229.879002,42.4069982 229.513,42.761 Z M226.264,41.654 C226.720002,41.654 226.948,41.4620019 226.948,41.078 C226.948,40.8019986 226.843001,40.5800008 226.633,40.412 C226.422999,40.2439992 226.123002,40.16 225.733,40.16 C225.342998,40.16 224.956002,40.3189984 224.572,40.637 C224.187998,40.9550016 223.996,41.2939982 223.996,41.654 L226.264,41.654 Z M234.706,43.445 C235.042002,43.7270014 235.398998,43.868 235.777,43.868 C236.155002,43.868 236.508998,43.7570011 236.839,43.535 C237.169002,43.3129989 237.435999,43.202 237.64,43.202 C238.000002,43.202 238.437997,43.5199968 238.954,44.156 C239.230001,44.5040017 239.368,44.8159986 239.368,45.092 C239.368,45.5480023 239.038003,45.973998 238.378,46.37 C237.693997,46.8500024 236.854005,47.09 235.858,47.09 C234.741994,47.09 233.668005,46.688004 232.636,45.884 C232.143998,45.4999981 231.742002,44.9870032 231.43,44.345 C231.117998,43.7029968 230.962,42.9950039 230.962,42.221 C230.962,41.4469961 231.117998,40.7450032 231.43,40.115 C231.742002,39.4849969 232.143998,38.9780019 232.636,38.594 C233.632005,37.801996 234.693994,37.406 235.822,37.406 C236.278002,37.406 236.721998,37.4689994 237.154,37.595 C237.586002,37.7210006 237.903999,37.8439994 238.108,37.964 L238.396,38.144 C238.612001,38.2880007 238.779999,38.4019996 238.9,38.486 C239.212002,38.7260012 239.368,38.9989985 239.368,39.305 C239.368,39.6110015 239.242001,39.9559981 238.99,40.34 C238.557998,41.0000033 238.144002,41.33 237.748,41.33 C237.519999,41.33 237.196002,41.1980013 236.776,40.934 C236.559999,40.729999 236.251002,40.628 235.849,40.628 C235.446998,40.628 235.072002,40.7719986 234.724,41.06 C234.375998,41.3480014 234.202,41.7469974 234.202,42.257 C234.202,42.7670026 234.369998,43.1629986 234.706,43.445 Z M246.046,40.7 L244.876,40.628 L244.876,43.112 C244.876,43.4360016 244.926999,43.6699993 245.029,43.814 C245.131001,43.9580007 245.322999,44.03 245.605,44.03 C245.887001,44.03 246.102999,44.0389999 246.253,44.057 C246.403001,44.0750001 246.561999,44.1319995 246.73,44.228 C247.006001,44.3840008 247.144,44.7859968 247.144,45.434 C247.144,46.1900038 246.976002,46.6519992 246.64,46.82 C246.459999,46.9040004 246.301001,46.9549999 246.163,46.973 C246.024999,46.9910001 245.824001,47 245.56,47 C244.311994,47 243.364003,46.7180028 242.716,46.154 C242.067997,45.5899972 241.744,44.6360067 241.744,43.292 L241.744,40.628 C241.515999,40.6640002 241.270001,40.682 241.006,40.682 C240.741999,40.682 240.523001,40.580001 240.349,40.376 C240.174999,40.171999 240.088,39.8240025 240.088,39.332 C240.088,38.8399975 240.118,38.4830011 240.178,38.261 C240.238,38.0389989 240.321999,37.8800005 240.43,37.784 C240.622001,37.6279992 240.861999,37.55 241.15,37.55 L241.744,37.622 L241.744,35.768 C241.744,35.4919986 241.753,35.2880007 241.771,35.156 C241.789,35.0239993 241.846,34.8800008 241.942,34.724 C242.098001,34.4239985 242.559996,34.274 243.328,34.274 C244.144004,34.274 244.629999,34.4959978 244.786,34.94 C244.846,35.132001 244.876,35.4379979 244.876,35.858 L244.876,37.622 C245.404003,37.5739998 245.802999,37.55 246.073,37.55 C246.343001,37.55 246.546999,37.5589999 246.685,37.577 C246.823001,37.5950001 246.981999,37.6519995 247.162,37.748 C247.474002,37.9040008 247.63,38.3659962 247.63,39.134 C247.63,39.8900038 247.468002,40.3519992 247.144,40.52 C246.963999,40.6040004 246.805001,40.6549999 246.667,40.673 C246.528999,40.6910001 246.322001,40.7 246.046,40.7 Z M248.62,39.098 C248.62,38.8219986 248.629,38.6150007 248.647,38.477 C248.665,38.3389993 248.716,38.1800009 248.8,38 C248.968001,37.6879984 249.435996,37.532 250.204,37.532 C250.780003,37.532 251.187999,37.633999 251.428,37.838 C251.632001,38.0060008 251.74,38.2639983 251.752,38.612 C251.764,38.7320006 251.77,38.9059989 251.77,39.134 L251.77,45.434 C251.77,45.7100014 251.761,45.9169993 251.743,46.055 C251.725,46.1930007 251.668,46.3519991 251.572,46.532 C251.415999,46.8440016 250.954004,47 250.186,47 C249.429996,47 248.968001,46.8380016 248.8,46.514 C248.716,46.3339991 248.665,46.1780007 248.647,46.046 C248.629,45.9139993 248.62,45.7040014 248.62,45.416 L248.62,39.098 Z M251.104,36.128 C250.875999,36.2000004 250.573002,36.236 250.195,36.236 C249.816998,36.236 249.514001,36.2000004 249.286,36.128 C249.057999,36.0559996 248.899,35.9300009 248.809,35.75 C248.719,35.5699991 248.665,35.4110007 248.647,35.273 C248.629,35.1349993 248.62,34.9280014 248.62,34.652 C248.62,34.3759986 248.629,34.1690007 248.647,34.031 C248.665,33.8929993 248.716,33.7400008 248.8,33.572 C248.968001,33.2479984 249.435996,33.086 250.204,33.086 C250.960004,33.086 251.415999,33.2479984 251.572,33.572 C251.668,33.7520009 251.725,33.9109993 251.743,34.049 C251.761,34.1870007 251.77,34.3939986 251.77,34.67 C251.77,34.9460014 251.761,35.1529993 251.743,35.291 C251.725,35.4290007 251.671,35.5849991 251.581,35.759 C251.491,35.9330009 251.332001,36.0559996 251.104,36.128 Z M254.452,38.702 C255.460005,37.7659953 256.611994,37.298 257.908,37.298 C259.204006,37.298 260.349995,37.7629953 261.346,38.693 C262.342005,39.6230046 262.84,40.8079928 262.84,42.248 C262.84,43.244005 262.582003,44.1289961 262.066,44.903 C261.549997,45.6770039 260.923004,46.2469982 260.185,46.613 C259.446996,46.9790018 258.682004,47.162 257.89,47.162 C257.097996,47.162 256.330004,46.9670019 255.586,46.577 C254.841996,46.186998 254.215003,45.6110038 253.705,44.849 C253.194997,44.0869962 252.94,43.2260048 252.94,42.266 C252.94,40.8259928 253.443995,39.6380047 254.452,38.702 Z M257.872,43.994 C258.268002,43.994 258.663998,43.8440015 259.06,43.544 C259.456002,43.2439985 259.654,42.8000029 259.654,42.212 C259.654,41.6239971 259.468002,41.1860014 259.096,40.898 C258.723998,40.6099986 258.322002,40.466 257.89,40.466 C257.457998,40.466 257.056002,40.6159985 256.684,40.916 C256.311998,41.2160015 256.126,41.6569971 256.126,42.239 C256.126,42.8210029 256.317998,43.2589985 256.702,43.553 C257.086002,43.8470015 257.475998,43.994 257.872,43.994 Z M267.124,38.6659123 C267.124,38.6659416 267.124,38.6659708 267.124,38.666 C267.125248,38.6638152 267.126537,38.6616061 267.127867,38.6593726 L267.124,38.6659123 Z M267.127867,38.6593726 C267.177659,38.5757331 267.284369,38.4579433 267.448,38.306 C267.616001,38.1499992 267.777999,38.0240005 267.934,37.928 C268.342002,37.6519986 268.791998,37.514 269.284,37.514 C270.484006,37.514 271.482996,37.9729954 272.281,38.891 C273.079004,39.8090046 273.478,40.9279934 273.478,42.248 L273.478,45.416 C273.478,45.6920014 273.469,45.8989993 273.451,46.037 C273.433,46.1750007 273.382,46.3279992 273.298,46.496 C273.129999,46.8200016 272.662004,46.982 271.894,46.982 C271.041996,46.982 270.550001,46.7600022 270.418,46.316 C270.346,46.111999 270.31,45.806002 270.31,45.398 L270.31,42.23 C270.31,41.7379975 270.169001,41.3540014 269.887,41.078 C269.604999,40.8019986 269.227002,40.664 268.753,40.664 C268.278998,40.664 267.895001,40.8079986 267.601,41.096 C267.306999,41.3840014 267.16,41.7619977 267.16,42.23 L267.16,45.416 C267.16,45.6920014 267.151,45.8989993 267.133,46.037 C267.115,46.1750007 267.058,46.3279992 266.962,46.496 C266.805999,46.8200016 266.344004,46.982 265.576,46.982 C264.819996,46.982 264.358001,46.8200016 264.19,46.496 C264.106,46.3159991 264.055,46.1570007 264.037,46.019 C264.019,45.8809993 264.01,45.6740014 264.01,45.398 L264.01,39.026 C264.01,38.7619987 264.019,38.5610007 264.037,38.423 C264.055,38.2849993 264.112,38.1320008 264.208,37.964 C264.376001,37.6639985 264.837996,37.514 265.594,37.514 C266.326004,37.514 266.775999,37.6519986 266.944,37.928 C267.063988,38.1319803 267.123988,38.3779486 267.124,38.6659123 L267.127867,38.6593726 Z" id="Store-&amp;-Product-Sele" fill="#2D2D4F"></path>
                </g>
                <g id="KPIs" transform="translate(176.000000, 240.000000)">
                    <rect id="white-rect" fill="#FFFFFF" x="0" y="0" width="322" height="80" rx="10"></rect>
                    <path d="M149.372,40.376 C151.208009,42.1400088 152.509996,43.4659956 153.278,44.354 C153.674002,44.7980022 153.872,45.1729985 153.872,45.479 C153.872,45.7850015 153.632002,46.1449979 153.152,46.559 C152.671998,46.9730021 152.279002,47.18 151.973,47.18 C151.666998,47.18 151.298002,46.9280025 150.866,46.424 L146.906,41.906 L146.906,45.416 C146.906,45.7040014 146.897,45.9139993 146.879,46.046 C146.861,46.1780007 146.804,46.3339991 146.708,46.514 C146.539999,46.8380016 146.072004,47 145.304,47 C144.463996,47 143.972001,46.7720023 143.828,46.316 C143.756,46.123999 143.72,45.8180021 143.72,45.398 L143.72,35.39 C143.72,35.1139986 143.729,34.9070007 143.747,34.769 C143.765,34.6309993 143.822,34.4720009 143.918,34.292 C144.086001,33.9679984 144.553996,33.806 145.322,33.806 C146.162004,33.806 146.659999,34.0279978 146.816,34.472 C146.876,34.676001 146.906,34.9879979 146.906,35.408 L146.906,38.846 C148.538008,37.0099908 149.857995,35.5040059 150.866,34.328 C151.286002,33.8359975 151.651998,33.59 151.964,33.59 C152.276002,33.59 152.671998,33.7969979 153.152,34.211 C153.632002,34.6250021 153.872,34.9849985 153.872,35.291 C153.872,35.5970015 153.692002,35.9599979 153.332,36.38 C152.635997,37.184004 151.556007,38.287993 150.092,39.692 L149.372,40.376 Z M165.428,38.594 C165.428,39.3740039 165.272002,40.0789969 164.96,40.709 C164.647998,41.3390032 164.246002,41.8399981 163.754,42.212 C162.757995,42.9800038 161.726005,43.364 160.658,43.364 L158.408,43.364 L158.408,45.398 C158.408,45.6740014 158.399,45.8809993 158.381,46.019 C158.363,46.1570007 158.306,46.3159991 158.21,46.496 C158.041999,46.8200016 157.574004,46.982 156.806,46.982 C155.965996,46.982 155.474001,46.7600022 155.33,46.316 C155.258,46.111999 155.222,45.8000021 155.222,45.38 L155.222,35.39 C155.222,35.1139986 155.231,34.9070007 155.249,34.769 C155.267,34.6309993 155.324,34.4720009 155.42,34.292 C155.588001,33.9679984 156.055996,33.806 156.824,33.806 L160.676,33.806 C161.732005,33.806 162.757995,34.1899962 163.754,34.958 C164.246002,35.3300019 164.647998,35.8339968 164.96,36.47 C165.272002,37.1060032 165.428,37.8139961 165.428,38.594 Z M161.738,39.782 C162.086002,39.5179987 162.26,39.1220026 162.26,38.594 C162.26,38.0659974 162.086002,37.6670014 161.738,37.397 C161.389998,37.1269987 161.030002,36.992 160.658,36.992 L158.408,36.992 L158.408,40.178 L160.676,40.178 C161.036002,40.178 161.389998,40.0460013 161.738,39.782 Z M166.598,35.39 C166.598,35.1139986 166.607,34.9070007 166.625,34.769 C166.643,34.6309993 166.7,34.4720009 166.796,34.292 C166.964001,33.9679984 167.431996,33.806 168.2,33.806 C169.040004,33.806 169.537999,34.0279978 169.694,34.472 C169.754,34.676001 169.784,34.9879979 169.784,35.408 L169.784,45.416 C169.784,45.7040014 169.775,45.9139993 169.757,46.046 C169.739,46.1780007 169.682,46.3339991 169.586,46.514 C169.417999,46.8380016 168.950004,47 168.182,47 C167.341996,47 166.850001,46.7720023 166.706,46.316 C166.634,46.123999 166.598,45.8180021 166.598,45.398 L166.598,35.39 Z M171.296,46.154 C171.067999,46.0099993 170.954,45.7820016 170.954,45.47 C170.954,45.1579984 171.181998,44.6840032 171.638,44.048 C171.770001,43.843999 171.982999,43.742 172.277,43.742 C172.571001,43.742 172.969997,43.8889985 173.474,44.183 C173.978003,44.4770015 174.433998,44.624 174.842,44.624 C175.574004,44.624 175.94,44.4800014 175.94,44.192 C175.94,43.9639989 175.538004,43.7960005 174.734,43.688 C173.977996,43.5799995 173.228004,43.2980023 172.484,42.842 C172.135998,42.6259989 171.848001,42.2870023 171.62,41.825 C171.391999,41.3629977 171.278,40.8140032 171.278,40.178 C171.278,38.2819905 172.579987,37.334 175.184,37.334 C176.036004,37.334 176.911995,37.537998 177.812,37.946 C178.232002,38.138001 178.442,38.3779986 178.442,38.666 C178.442,38.9540014 178.310001,39.3079979 178.046,39.728 C177.781999,40.1480021 177.512001,40.358 177.236,40.358 C177.091999,40.358 176.825002,40.2680009 176.435,40.088 C176.044998,39.9079991 175.622002,39.818 175.166,39.818 C174.457996,39.818 174.104,39.9499987 174.104,40.214 C174.104,40.5740018 174.511996,40.8079995 175.328,40.916 C176.120004,41.0000004 176.887996,41.2279981 177.632,41.6 C177.980002,41.7680008 178.270999,42.0589979 178.505,42.473 C178.739001,42.8870021 178.856,43.4059969 178.856,44.03 C178.856,44.6540031 178.739001,45.1849978 178.505,45.623 C178.270999,46.0610022 177.944002,46.3879989 177.524,46.604 C176.755996,46.9760019 175.793006,47.162 174.635,47.162 C173.476994,47.162 172.364005,46.8260034 171.296,46.154 Z" fill="#2D2D4F"></path>
                </g>
                <g id="Waste-analytics" transform="translate(176.000000, 120.000000)">
                    <rect id="white-rect" fill="#FFFFFF" x="0" y="0" width="322" height="80" rx="10"></rect>
                    <path d="M105.506,33.878 C106.310004,34.1660014 106.712,34.5499976 106.712,35.03 C106.712,35.1860008 106.640001,35.4799978 106.496,35.912 L103.04,45.902 C103.016,45.9860004 102.974,46.0879994 102.914,46.208 C102.854,46.3280006 102.695001,46.486999 102.437,46.685 C102.178999,46.883001 101.873002,46.982 101.519,46.982 C101.164998,46.982 100.859001,46.883001 100.601,46.685 C100.342999,46.486999 100.172,46.292001 100.088,46.1 L97.982,39.89 C96.6499933,43.8260197 95.9720001,45.8299996 95.948,45.902 C95.9239999,45.9740004 95.8700004,46.0759993 95.786,46.208 C95.7019996,46.3400007 95.6060005,46.4599995 95.498,46.568 C95.2219986,46.8440014 94.8920019,46.982 94.508,46.982 C94.1239981,46.982 93.8090012,46.8920009 93.563,46.712 C93.3169988,46.5319991 93.1520004,46.3520009 93.068,46.172 L92.942,45.902 L89.468,35.912 C89.3359993,35.515998 89.27,35.222001 89.27,35.03 C89.27,34.5499976 89.671996,34.1720014 90.476,33.896 C90.8240017,33.7759994 91.1389986,33.716 91.421,33.716 C91.7030014,33.716 91.9189992,33.811999 92.069,34.004 C92.2190008,34.196001 92.3539994,34.489998 92.474,34.886 L94.454,40.898 L96.416,34.976 C96.5840008,34.4719975 96.8899978,34.124001 97.334,33.932 C97.526001,33.8479996 97.7749985,33.806 98.081,33.806 C98.3870015,33.806 98.6719987,33.904999 98.936,34.103 C99.2000013,34.301001 99.3679996,34.495999 99.44,34.688 L101.51,40.934 L103.49,34.886 C103.586,34.6099986 103.664,34.4060007 103.724,34.274 C103.784,34.1419993 103.894999,34.0130006 104.057,33.887 C104.219001,33.7609994 104.419999,33.698 104.66,33.698 C104.900001,33.698 105.181998,33.7579994 105.506,33.878 Z M113.858,38.522 C113.93,37.8499966 114.403996,37.514 115.28,37.514 C115.748002,37.514 116.095999,37.5499996 116.324,37.622 C116.552001,37.6940004 116.711,37.8199991 116.801,38 C116.891,38.1800009 116.945,38.3389993 116.963,38.477 C116.981,38.6150007 116.99,38.8219986 116.99,39.098 L116.99,45.398 C116.99,45.6740014 116.981,45.8809993 116.963,46.019 C116.945,46.1570007 116.894,46.3159991 116.81,46.496 C116.641999,46.8080016 116.231003,46.964 115.577,46.964 C114.922997,46.964 114.485001,46.8830008 114.263,46.721 C114.040999,46.5589992 113.912,46.3220016 113.876,46.01 C113.431998,46.6460032 112.691005,46.964 111.653,46.964 C110.614995,46.964 109.652004,46.4900047 108.764,45.542 C107.875996,44.5939953 107.432,43.4930063 107.432,42.239 C107.432,40.9849937 107.878996,39.8870047 108.773,38.945 C109.667004,38.0029953 110.647995,37.532 111.716,37.532 C112.124002,37.532 112.495998,37.6039993 112.832,37.748 C113.168002,37.8920007 113.401999,38.0269994 113.534,38.153 C113.666001,38.2790006 113.774,38.4019994 113.858,38.522 Z M111.05,43.337 C111.362002,43.6550016 111.739998,43.814 112.184,43.814 C112.628002,43.814 112.996999,43.6520016 113.291,43.328 C113.585001,43.0039984 113.732,42.6470019 113.732,42.257 C113.732,41.866998 113.591001,41.5040017 113.309,41.168 C113.026999,40.8319983 112.649002,40.664 112.175,40.664 C111.700998,40.664 111.317001,40.8319983 111.023,41.168 C110.728999,41.5040017 110.582,41.869998 110.582,42.266 C110.582,42.662002 110.737998,43.0189984 111.05,43.337 Z M118.502,46.154 C118.273999,46.0099993 118.16,45.7820016 118.16,45.47 C118.16,45.1579984 118.387998,44.6840032 118.844,44.048 C118.976001,43.843999 119.188999,43.742 119.483,43.742 C119.777001,43.742 120.175997,43.8889985 120.68,44.183 C121.184003,44.4770015 121.639998,44.624 122.048,44.624 C122.780004,44.624 123.146,44.4800014 123.146,44.192 C123.146,43.9639989 122.744004,43.7960005 121.94,43.688 C121.183996,43.5799995 120.434004,43.2980023 119.69,42.842 C119.341998,42.6259989 119.054001,42.2870023 118.826,41.825 C118.597999,41.3629977 118.484,40.8140032 118.484,40.178 C118.484,38.2819905 119.785987,37.334 122.39,37.334 C123.242004,37.334 124.117996,37.537998 125.018,37.946 C125.438002,38.138001 125.648,38.3779986 125.648,38.666 C125.648,38.9540014 125.516001,39.3079979 125.252,39.728 C124.987999,40.1480021 124.718001,40.358 124.442,40.358 C124.297999,40.358 124.031002,40.2680009 123.641,40.088 C123.250998,39.9079991 122.828002,39.818 122.372,39.818 C121.663996,39.818 121.31,39.9499987 121.31,40.214 C121.31,40.5740018 121.717996,40.8079995 122.534,40.916 C123.326004,41.0000004 124.093996,41.2279981 124.838,41.6 C125.186002,41.7680008 125.476999,42.0589979 125.711,42.473 C125.945001,42.8870021 126.062,43.4059969 126.062,44.03 C126.062,44.6540031 125.945001,45.1849978 125.711,45.623 C125.476999,46.0610022 125.150002,46.3879989 124.73,46.604 C123.961996,46.9760019 122.999006,47.162 121.841,47.162 C120.682994,47.162 119.570005,46.8260034 118.502,46.154 Z M132.74,40.7 L131.57,40.628 L131.57,43.112 C131.57,43.4360016 131.620999,43.6699993 131.723,43.814 C131.825001,43.9580007 132.016999,44.03 132.299,44.03 C132.581001,44.03 132.796999,44.0389999 132.947,44.057 C133.097001,44.0750001 133.255999,44.1319995 133.424,44.228 C133.700001,44.3840008 133.838,44.7859968 133.838,45.434 C133.838,46.1900038 133.670002,46.6519992 133.334,46.82 C133.153999,46.9040004 132.995001,46.9549999 132.857,46.973 C132.718999,46.9910001 132.518001,47 132.254,47 C131.005994,47 130.058003,46.7180028 129.41,46.154 C128.761997,45.5899972 128.438,44.6360067 128.438,43.292 L128.438,40.628 C128.209999,40.6640002 127.964001,40.682 127.7,40.682 C127.435999,40.682 127.217001,40.580001 127.043,40.376 C126.868999,40.171999 126.782,39.8240025 126.782,39.332 C126.782,38.8399975 126.812,38.4830011 126.872,38.261 C126.932,38.0389989 127.015999,37.8800005 127.124,37.784 C127.316001,37.6279992 127.555999,37.55 127.844,37.55 L128.438,37.622 L128.438,35.768 C128.438,35.4919986 128.447,35.2880007 128.465,35.156 C128.483,35.0239993 128.54,34.8800008 128.636,34.724 C128.792001,34.4239985 129.253996,34.274 130.022,34.274 C130.838004,34.274 131.323999,34.4959978 131.48,34.94 C131.54,35.132001 131.57,35.4379979 131.57,35.858 L131.57,37.622 C132.098003,37.5739998 132.496999,37.55 132.767,37.55 C133.037001,37.55 133.240999,37.5589999 133.379,37.577 C133.517001,37.5950001 133.675999,37.6519995 133.856,37.748 C134.168002,37.9040008 134.324,38.3659962 134.324,39.134 C134.324,39.8900038 134.162002,40.3519992 133.838,40.52 C133.657999,40.6040004 133.499001,40.6549999 133.361,40.673 C133.222999,40.6910001 133.016001,40.7 132.74,40.7 Z M143.909,42.761 C143.542998,43.1150018 143.138002,43.292 142.694,43.292 L138.428,43.292 C138.428,43.6280017 138.625998,43.9099989 139.022,44.138 C139.418002,44.3660011 139.813998,44.48 140.21,44.48 C140.906003,44.48 141.451998,44.4080007 141.848,44.264 L142.046,44.192 C142.334001,44.0599993 142.573999,43.994 142.766,43.994 C143.150002,43.994 143.479999,44.2639973 143.756,44.804 C143.912001,45.1280016 143.99,45.4039989 143.99,45.632 C143.99,46.7000053 142.712013,47.234 140.156,47.234 C139.267996,47.234 138.479003,47.0810015 137.789,46.775 C137.098997,46.4689985 136.562002,46.0640025 136.178,45.56 C135.421996,44.5879951 135.044,43.502006 135.044,42.302 C135.044,40.7899924 135.532995,39.5810045 136.511,38.675 C137.489005,37.7689955 138.709993,37.316 140.174,37.316 C141.842008,37.316 143.065996,37.9039941 143.846,39.08 C144.254002,39.7040031 144.458,40.3849963 144.458,41.123 C144.458,41.8610037 144.275002,42.4069982 143.909,42.761 Z M140.66,41.654 C141.116002,41.654 141.344,41.4620019 141.344,41.078 C141.344,40.8019986 141.239001,40.5800008 141.029,40.412 C140.818999,40.2439992 140.519002,40.16 140.129,40.16 C139.738998,40.16 139.352002,40.3189984 138.968,40.637 C138.583998,40.9550016 138.392,41.2939982 138.392,41.654 L140.66,41.654 Z M157.796,34.742 L162.656,44.786 C162.860001,45.194002 162.962,45.499999 162.962,45.704 C162.962,46.1360022 162.614003,46.5259983 161.918,46.874 C161.509998,47.078001 161.189001,47.18 160.955,47.18 C160.720999,47.18 160.529001,47.1260005 160.379,47.018 C160.228999,46.9099995 160.121,46.7960006 160.055,46.676 C159.989,46.5559994 159.896001,46.3760012 159.776,46.136 L158.84,44.192 L153.854,44.192 L152.918,46.136 C152.797999,46.3760012 152.705,46.5499995 152.639,46.658 C152.573,46.7660005 152.465001,46.8769994 152.315,46.991 C152.164999,47.1050006 151.973001,47.162 151.739,47.162 C151.504999,47.162 151.184002,47.060001 150.776,46.856 C150.079997,46.5199983 149.732,46.1360022 149.732,45.704 C149.732,45.499999 149.833999,45.194002 150.038,44.786 L154.898,34.724 C155.030001,34.4479986 155.230999,34.2260008 155.501,34.058 C155.771001,33.8899992 156.055999,33.806 156.356,33.806 C157.004003,33.806 157.483998,34.1179969 157.796,34.742 Z M156.338,39.062 L155.15,41.528 L157.544,41.528 L156.338,39.062 Z M167.066,38.6659123 C167.066,38.6659416 167.066,38.6659708 167.066,38.666 C167.067248,38.6638152 167.068537,38.6616061 167.069867,38.6593726 L167.066,38.6659123 Z M167.069867,38.6593726 C167.119659,38.5757331 167.226369,38.4579433 167.39,38.306 C167.558001,38.1499992 167.719999,38.0240005 167.876,37.928 C168.284002,37.6519986 168.733998,37.514 169.226,37.514 C170.426006,37.514 171.424996,37.9729954 172.223,38.891 C173.021004,39.8090046 173.42,40.9279934 173.42,42.248 L173.42,45.416 C173.42,45.6920014 173.411,45.8989993 173.393,46.037 C173.375,46.1750007 173.324,46.3279992 173.24,46.496 C173.071999,46.8200016 172.604004,46.982 171.836,46.982 C170.983996,46.982 170.492001,46.7600022 170.36,46.316 C170.288,46.111999 170.252,45.806002 170.252,45.398 L170.252,42.23 C170.252,41.7379975 170.111001,41.3540014 169.829,41.078 C169.546999,40.8019986 169.169002,40.664 168.695,40.664 C168.220998,40.664 167.837001,40.8079986 167.543,41.096 C167.248999,41.3840014 167.102,41.7619977 167.102,42.23 L167.102,45.416 C167.102,45.6920014 167.093,45.8989993 167.075,46.037 C167.057,46.1750007 167,46.3279992 166.904,46.496 C166.747999,46.8200016 166.286004,46.982 165.518,46.982 C164.761996,46.982 164.300001,46.8200016 164.132,46.496 C164.048,46.3159991 163.997,46.1570007 163.979,46.019 C163.961,45.8809993 163.952,45.6740014 163.952,45.398 L163.952,39.026 C163.952,38.7619987 163.961,38.5610007 163.979,38.423 C163.997,38.2849993 164.054,38.1320008 164.15,37.964 C164.318001,37.6639985 164.779996,37.514 165.536,37.514 C166.268004,37.514 166.717999,37.6519986 166.886,37.928 C167.005988,38.1319803 167.065988,38.3779486 167.066,38.6659123 L167.069867,38.6593726 Z M181.016,38.522 C181.088,37.8499966 181.561996,37.514 182.438,37.514 C182.906002,37.514 183.253999,37.5499996 183.482,37.622 C183.710001,37.6940004 183.869,37.8199991 183.959,38 C184.049,38.1800009 184.103,38.3389993 184.121,38.477 C184.139,38.6150007 184.148,38.8219986 184.148,39.098 L184.148,45.398 C184.148,45.6740014 184.139,45.8809993 184.121,46.019 C184.103,46.1570007 184.052,46.3159991 183.968,46.496 C183.799999,46.8080016 183.389003,46.964 182.735,46.964 C182.080997,46.964 181.643001,46.8830008 181.421,46.721 C181.198999,46.5589992 181.07,46.3220016 181.034,46.01 C180.589998,46.6460032 179.849005,46.964 178.811,46.964 C177.772995,46.964 176.810004,46.4900047 175.922,45.542 C175.033996,44.5939953 174.59,43.4930063 174.59,42.239 C174.59,40.9849937 175.036996,39.8870047 175.931,38.945 C176.825004,38.0029953 177.805995,37.532 178.874,37.532 C179.282002,37.532 179.653998,37.6039993 179.99,37.748 C180.326002,37.8920007 180.559999,38.0269994 180.692,38.153 C180.824001,38.2790006 180.932,38.4019994 181.016,38.522 Z M178.208,43.337 C178.520002,43.6550016 178.897998,43.814 179.342,43.814 C179.786002,43.814 180.154999,43.6520016 180.449,43.328 C180.743001,43.0039984 180.89,42.6470019 180.89,42.257 C180.89,41.866998 180.749001,41.5040017 180.467,41.168 C180.184999,40.8319983 179.807002,40.664 179.333,40.664 C178.858998,40.664 178.475001,40.8319983 178.181,41.168 C177.886999,41.5040017 177.74,41.869998 177.74,42.266 C177.74,42.662002 177.895998,43.0189984 178.208,43.337 Z M185.588,34.634 C185.588,34.3579986 185.597,34.1510007 185.615,34.013 C185.633,33.8749993 185.684,33.7160009 185.768,33.536 C185.936001,33.2119984 186.403996,33.05 187.172,33.05 C187.904004,33.05 188.359999,33.2119984 188.54,33.536 C188.636,33.7160009 188.693,33.8779993 188.711,34.022 C188.729,34.1660007 188.738,34.3759986 188.738,34.652 L188.738,42.986 C188.738,43.4180022 188.774,43.6909994 188.846,43.805 C188.918,43.9190006 189.076999,43.976 189.323,43.976 C189.569001,43.976 189.734,43.9849999 189.818,44.003 C189.902,44.0210001 190.003999,44.0719996 190.124,44.156 C190.364001,44.3120008 190.484,44.7379965 190.484,45.434 C190.484,46.1900038 190.364001,46.6519992 190.124,46.82 C189.811998,47.0360011 189.068006,47.0720007 187.892,46.928 C186.967995,46.8079994 186.368001,46.5020025 186.092,46.01 C185.755998,45.4219971 185.588,44.4860064 185.588,43.202 L185.588,34.634 Z M200.294,37.622 C201.002004,37.9340016 201.356,38.3119978 201.356,38.756 C201.356,38.9720011 201.308,39.175999 201.212,39.368 C201.116,39.560001 201.068,39.6619999 201.068,39.674 L196.352,50.222 C196.256,50.4500011 196.175,50.6239994 196.109,50.744 C196.043,50.8640006 195.938001,50.9779995 195.794,51.086 C195.649999,51.1940005 195.470001,51.248 195.254,51.248 C195.037999,51.248 194.720002,51.1580009 194.3,50.978 C193.591996,50.6659984 193.238,50.2940022 193.238,49.862 C193.238,49.5739986 193.813994,48.2000123 194.966,45.74 L191.384,39.71 C191.143999,39.313998 191.024,39.020001 191.024,38.828 C191.024,38.4439981 191.347997,38.0600019 191.996,37.676 C192.404002,37.4359988 192.721999,37.316 192.95,37.316 C193.178001,37.316 193.363999,37.3639995 193.508,37.46 C193.652001,37.5560005 193.757,37.6549995 193.823,37.757 C193.889,37.8590005 194.218997,38.4169949 194.813,39.431 C195.407003,40.4450051 195.973997,41.3899956 196.514,42.266 C196.574,42.073999 196.897997,41.3330064 197.486,40.043 C198.074003,38.7529935 198.389,38.0660004 198.431,37.982 C198.473,37.8979996 198.542,37.7960006 198.638,37.676 C198.794001,37.471999 199.012999,37.37 199.295,37.37 C199.577001,37.37 199.909998,37.4539992 200.294,37.622 Z M207.854,40.7 L206.684,40.628 L206.684,43.112 C206.684,43.4360016 206.734999,43.6699993 206.837,43.814 C206.939001,43.9580007 207.130999,44.03 207.413,44.03 C207.695001,44.03 207.910999,44.0389999 208.061,44.057 C208.211001,44.0750001 208.369999,44.1319995 208.538,44.228 C208.814001,44.3840008 208.952,44.7859968 208.952,45.434 C208.952,46.1900038 208.784002,46.6519992 208.448,46.82 C208.267999,46.9040004 208.109001,46.9549999 207.971,46.973 C207.832999,46.9910001 207.632001,47 207.368,47 C206.119994,47 205.172003,46.7180028 204.524,46.154 C203.875997,45.5899972 203.552,44.6360067 203.552,43.292 L203.552,40.628 C203.323999,40.6640002 203.078001,40.682 202.814,40.682 C202.549999,40.682 202.331001,40.580001 202.157,40.376 C201.982999,40.171999 201.896,39.8240025 201.896,39.332 C201.896,38.8399975 201.926,38.4830011 201.986,38.261 C202.046,38.0389989 202.129999,37.8800005 202.238,37.784 C202.430001,37.6279992 202.669999,37.55 202.958,37.55 L203.552,37.622 L203.552,35.768 C203.552,35.4919986 203.561,35.2880007 203.579,35.156 C203.597,35.0239993 203.654,34.8800008 203.75,34.724 C203.906001,34.4239985 204.367996,34.274 205.136,34.274 C205.952004,34.274 206.437999,34.4959978 206.594,34.94 C206.654,35.132001 206.684,35.4379979 206.684,35.858 L206.684,37.622 C207.212003,37.5739998 207.610999,37.55 207.881,37.55 C208.151001,37.55 208.354999,37.5589999 208.493,37.577 C208.631001,37.5950001 208.789999,37.6519995 208.97,37.748 C209.282002,37.9040008 209.438,38.3659962 209.438,39.134 C209.438,39.8900038 209.276002,40.3519992 208.952,40.52 C208.771999,40.6040004 208.613001,40.6549999 208.475,40.673 C208.336999,40.6910001 208.130001,40.7 207.854,40.7 Z M210.428,39.098 C210.428,38.8219986 210.437,38.6150007 210.455,38.477 C210.473,38.3389993 210.524,38.1800009 210.608,38 C210.776001,37.6879984 211.243996,37.532 212.012,37.532 C212.588003,37.532 212.995999,37.633999 213.236,37.838 C213.440001,38.0060008 213.548,38.2639983 213.56,38.612 C213.572,38.7320006 213.578,38.9059989 213.578,39.134 L213.578,45.434 C213.578,45.7100014 213.569,45.9169993 213.551,46.055 C213.533,46.1930007 213.476,46.3519991 213.38,46.532 C213.223999,46.8440016 212.762004,47 211.994,47 C211.237996,47 210.776001,46.8380016 210.608,46.514 C210.524,46.3339991 210.473,46.1780007 210.455,46.046 C210.437,45.9139993 210.428,45.7040014 210.428,45.416 L210.428,39.098 Z M212.912,36.128 C212.683999,36.2000004 212.381002,36.236 212.003,36.236 C211.624998,36.236 211.322001,36.2000004 211.094,36.128 C210.865999,36.0559996 210.707,35.9300009 210.617,35.75 C210.527,35.5699991 210.473,35.4110007 210.455,35.273 C210.437,35.1349993 210.428,34.9280014 210.428,34.652 C210.428,34.3759986 210.437,34.1690007 210.455,34.031 C210.473,33.8929993 210.524,33.7400008 210.608,33.572 C210.776001,33.2479984 211.243996,33.086 212.012,33.086 C212.768004,33.086 213.223999,33.2479984 213.38,33.572 C213.476,33.7520009 213.533,33.9109993 213.551,34.049 C213.569,34.1870007 213.578,34.3939986 213.578,34.67 C213.578,34.9460014 213.569,35.1529993 213.551,35.291 C213.533,35.4290007 213.479,35.5849991 213.389,35.759 C213.299,35.9330009 213.140001,36.0559996 212.912,36.128 Z M218.492,43.445 C218.828002,43.7270014 219.184998,43.868 219.563,43.868 C219.941002,43.868 220.294998,43.7570011 220.625,43.535 C220.955002,43.3129989 221.221999,43.202 221.426,43.202 C221.786002,43.202 222.223997,43.5199968 222.74,44.156 C223.016001,44.5040017 223.154,44.8159986 223.154,45.092 C223.154,45.5480023 222.824003,45.973998 222.164,46.37 C221.479997,46.8500024 220.640005,47.09 219.644,47.09 C218.527994,47.09 217.454005,46.688004 216.422,45.884 C215.929998,45.4999981 215.528002,44.9870032 215.216,44.345 C214.903998,43.7029968 214.748,42.9950039 214.748,42.221 C214.748,41.4469961 214.903998,40.7450032 215.216,40.115 C215.528002,39.4849969 215.929998,38.9780019 216.422,38.594 C217.418005,37.801996 218.479994,37.406 219.608,37.406 C220.064002,37.406 220.507998,37.4689994 220.94,37.595 C221.372002,37.7210006 221.689999,37.8439994 221.894,37.964 L222.182,38.144 C222.398001,38.2880007 222.565999,38.4019996 222.686,38.486 C222.998002,38.7260012 223.154,38.9989985 223.154,39.305 C223.154,39.6110015 223.028001,39.9559981 222.776,40.34 C222.343998,41.0000033 221.930002,41.33 221.534,41.33 C221.305999,41.33 220.982002,41.1980013 220.562,40.934 C220.345999,40.729999 220.037002,40.628 219.635,40.628 C219.232998,40.628 218.858002,40.7719986 218.51,41.06 C218.161998,41.3480014 217.988,41.7469974 217.988,42.257 C217.988,42.7670026 218.155998,43.1629986 218.492,43.445 Z M224.396,46.154 C224.167999,46.0099993 224.054,45.7820016 224.054,45.47 C224.054,45.1579984 224.281998,44.6840032 224.738,44.048 C224.870001,43.843999 225.082999,43.742 225.377,43.742 C225.671001,43.742 226.069997,43.8889985 226.574,44.183 C227.078003,44.4770015 227.533998,44.624 227.942,44.624 C228.674004,44.624 229.04,44.4800014 229.04,44.192 C229.04,43.9639989 228.638004,43.7960005 227.834,43.688 C227.077996,43.5799995 226.328004,43.2980023 225.584,42.842 C225.235998,42.6259989 224.948001,42.2870023 224.72,41.825 C224.491999,41.3629977 224.378,40.8140032 224.378,40.178 C224.378,38.2819905 225.679987,37.334 228.284,37.334 C229.136004,37.334 230.011995,37.537998 230.912,37.946 C231.332002,38.138001 231.542,38.3779986 231.542,38.666 C231.542,38.9540014 231.410001,39.3079979 231.146,39.728 C230.881999,40.1480021 230.612001,40.358 230.336,40.358 C230.191999,40.358 229.925002,40.2680009 229.535,40.088 C229.144998,39.9079991 228.722002,39.818 228.266,39.818 C227.557996,39.818 227.204,39.9499987 227.204,40.214 C227.204,40.5740018 227.611996,40.8079995 228.428,40.916 C229.220004,41.0000004 229.987996,41.2279981 230.732,41.6 C231.080002,41.7680008 231.370999,42.0589979 231.605,42.473 C231.839001,42.8870021 231.956,43.4059969 231.956,44.03 C231.956,44.6540031 231.839001,45.1849978 231.605,45.623 C231.370999,46.0610022 231.044002,46.3879989 230.624,46.604 C229.855996,46.9760019 228.893006,47.162 227.735,47.162 C226.576994,47.162 225.464005,46.8260034 224.396,46.154 Z" id="Waste-Analytics" fill="#2D2D4F"></path>
                </g>
                <g id="Kick-off-meeting" transform="translate(176.000000, 0.000000)">
                    <rect id="white-rect" fill="#FFFFFF" x="0" y="0" width="322" height="80" rx="10"></rect>
                    <path d="M95.372,40.376 C97.2080092,42.1400088 98.5099962,43.4659956 99.278,44.354 C99.674002,44.7980022 99.872,45.1729985 99.872,45.479 C99.872,45.7850015 99.6320024,46.1449979 99.152,46.559 C98.6719976,46.9730021 98.2790015,47.18 97.973,47.18 C97.6669985,47.18 97.2980022,46.9280025 96.866,46.424 L92.906,41.906 L92.906,45.416 C92.906,45.7040014 92.8970001,45.9139993 92.879,46.046 C92.8609999,46.1780007 92.8040005,46.3339991 92.708,46.514 C92.5399992,46.8380016 92.0720038,47 91.304,47 C90.4639958,47 89.9720007,46.7720023 89.828,46.316 C89.7559996,46.123999 89.72,45.8180021 89.72,45.398 L89.72,35.39 C89.72,35.1139986 89.7289999,34.9070007 89.747,34.769 C89.7650001,34.6309993 89.8219995,34.4720009 89.918,34.292 C90.0860008,33.9679984 90.5539962,33.806 91.322,33.806 C92.1620042,33.806 92.6599992,34.0279978 92.816,34.472 C92.8760003,34.676001 92.906,34.9879979 92.906,35.408 L92.906,38.846 C94.5380082,37.0099908 95.857995,35.5040059 96.866,34.328 C97.2860021,33.8359975 97.6519984,33.59 97.964,33.59 C98.2760016,33.59 98.6719976,33.7969979 99.152,34.211 C99.6320024,34.6250021 99.872,34.9849985 99.872,35.291 C99.872,35.5970015 99.6920018,35.9599979 99.332,36.38 C98.6359965,37.184004 97.5560073,38.287993 96.092,39.692 L95.372,40.376 Z M101.222,39.098 C101.222,38.8219986 101.231,38.6150007 101.249,38.477 C101.267,38.3389993 101.318,38.1800009 101.402,38 C101.570001,37.6879984 102.037996,37.532 102.806,37.532 C103.382003,37.532 103.789999,37.633999 104.03,37.838 C104.234001,38.0060008 104.342,38.2639983 104.354,38.612 C104.366,38.7320006 104.372,38.9059989 104.372,39.134 L104.372,45.434 C104.372,45.7100014 104.363,45.9169993 104.345,46.055 C104.327,46.1930007 104.27,46.3519991 104.174,46.532 C104.017999,46.8440016 103.556004,47 102.788,47 C102.031996,47 101.570001,46.8380016 101.402,46.514 C101.318,46.3339991 101.267,46.1780007 101.249,46.046 C101.231,45.9139993 101.222,45.7040014 101.222,45.416 L101.222,39.098 Z M103.706,36.128 C103.477999,36.2000004 103.175002,36.236 102.797,36.236 C102.418998,36.236 102.116001,36.2000004 101.888,36.128 C101.659999,36.0559996 101.501,35.9300009 101.411,35.75 C101.321,35.5699991 101.267,35.4110007 101.249,35.273 C101.231,35.1349993 101.222,34.9280014 101.222,34.652 C101.222,34.3759986 101.231,34.1690007 101.249,34.031 C101.267,33.8929993 101.318,33.7400008 101.402,33.572 C101.570001,33.2479984 102.037996,33.086 102.806,33.086 C103.562004,33.086 104.017999,33.2479984 104.174,33.572 C104.27,33.7520009 104.327,33.9109993 104.345,34.049 C104.363,34.1870007 104.372,34.3939986 104.372,34.67 C104.372,34.9460014 104.363,35.1529993 104.345,35.291 C104.327,35.4290007 104.273,35.5849991 104.183,35.759 C104.093,35.9330009 103.934001,36.0559996 103.706,36.128 Z M109.286,43.445 C109.622002,43.7270014 109.978998,43.868 110.357,43.868 C110.735002,43.868 111.088998,43.7570011 111.419,43.535 C111.749002,43.3129989 112.015999,43.202 112.22,43.202 C112.580002,43.202 113.017997,43.5199968 113.534,44.156 C113.810001,44.5040017 113.948,44.8159986 113.948,45.092 C113.948,45.5480023 113.618003,45.973998 112.958,46.37 C112.273997,46.8500024 111.434005,47.09 110.438,47.09 C109.321994,47.09 108.248005,46.688004 107.216,45.884 C106.723998,45.4999981 106.322002,44.9870032 106.01,44.345 C105.697998,43.7029968 105.542,42.9950039 105.542,42.221 C105.542,41.4469961 105.697998,40.7450032 106.01,40.115 C106.322002,39.4849969 106.723998,38.9780019 107.216,38.594 C108.212005,37.801996 109.273994,37.406 110.402,37.406 C110.858002,37.406 111.301998,37.4689994 111.734,37.595 C112.166002,37.7210006 112.483999,37.8439994 112.688,37.964 L112.976,38.144 C113.192001,38.2880007 113.359999,38.4019996 113.48,38.486 C113.792002,38.7260012 113.948,38.9989985 113.948,39.305 C113.948,39.6110015 113.822001,39.9559981 113.57,40.34 C113.137998,41.0000033 112.724002,41.33 112.328,41.33 C112.099999,41.33 111.776002,41.1980013 111.356,40.934 C111.139999,40.729999 110.831002,40.628 110.429,40.628 C110.026998,40.628 109.652002,40.7719986 109.304,41.06 C108.955998,41.3480014 108.782,41.7469974 108.782,42.257 C108.782,42.7670026 108.949998,43.1629986 109.286,43.445 Z M120.698,42.248 L123.092,44.228 C123.392002,44.4800013 123.581,44.6719993 123.659,44.804 C123.737,44.9360007 123.776,45.0619994 123.776,45.182 C123.776,45.4700014 123.590002,45.8599975 123.218,46.352 C122.809998,46.8560025 122.450002,47.108 122.138,47.108 C121.873999,47.108 121.508002,46.9340017 121.04,46.586 L120.86,46.46 C120.583999,46.2319989 120.158003,45.8330028 119.582,45.263 C119.005997,44.6929971 118.568002,44.2880012 118.268,44.048 L118.268,45.434 C118.268,45.7100014 118.259,45.9169993 118.241,46.055 C118.223,46.1930007 118.166,46.3519991 118.07,46.532 C117.913999,46.8440016 117.452004,47 116.684,47 C115.927996,47 115.466001,46.8380016 115.298,46.514 C115.214,46.3339991 115.163,46.1750007 115.145,46.037 C115.127,45.8989993 115.118,45.6920014 115.118,45.416 L115.118,34.634 C115.118,34.3579986 115.127,34.1510007 115.145,34.013 C115.163,33.8749993 115.214,33.7160009 115.298,33.536 C115.466001,33.2119984 115.933996,33.05 116.702,33.05 C117.278003,33.05 117.685999,33.151999 117.926,33.356 C118.130001,33.5240008 118.238,33.7879982 118.25,34.148 C118.262,34.2560005 118.268,34.4239989 118.268,34.652 L118.268,40.358 C118.484001,40.1779991 118.810998,39.8720022 119.249,39.44 C119.687002,39.0079978 120.013999,38.7020009 120.23,38.522 L120.446,38.378 C120.866002,38.0539984 121.225999,37.892 121.526,37.892 C121.826002,37.892 122.170998,38.1349976 122.561,38.621 C122.951002,39.1070024 123.146,39.4879986 123.146,39.764 C123.146,40.0400014 122.924002,40.3639981 122.48,40.736 L120.698,42.248 Z M130.076,44.498 L125.792,44.498 C125.119997,44.498 124.718001,44.294002 124.586,43.886 C124.526,43.6699989 124.496,43.3940017 124.496,43.058 C124.496,42.7219983 124.532,42.452001 124.604,42.248 C124.676,42.043999 124.789999,41.9000004 124.946,41.816 C125.162001,41.7079995 125.449998,41.654 125.81,41.654 L130.094,41.654 C130.766003,41.654 131.161999,41.851998 131.282,42.248 C131.354,42.4640011 131.39,42.7399983 131.39,43.076 C131.39,43.4120017 131.357,43.6849989 131.291,43.895 C131.225,44.105001 131.120001,44.2519996 130.976,44.336 C130.759999,44.4440005 130.460002,44.498 130.076,44.498 Z M133.802,38.702 C134.810005,37.7659953 135.961994,37.298 137.258,37.298 C138.554006,37.298 139.699995,37.7629953 140.696,38.693 C141.692005,39.6230046 142.19,40.8079928 142.19,42.248 C142.19,43.244005 141.932003,44.1289961 141.416,44.903 C140.899997,45.6770039 140.273004,46.2469982 139.535,46.613 C138.796996,46.9790018 138.032004,47.162 137.24,47.162 C136.447996,47.162 135.680004,46.9670019 134.936,46.577 C134.191996,46.186998 133.565003,45.6110038 133.055,44.849 C132.544997,44.0869962 132.29,43.2260048 132.29,42.266 C132.29,40.8259928 132.793995,39.6380047 133.802,38.702 Z M137.222,43.994 C137.618002,43.994 138.013998,43.8440015 138.41,43.544 C138.806002,43.2439985 139.004,42.8000029 139.004,42.212 C139.004,41.6239971 138.818002,41.1860014 138.446,40.898 C138.073998,40.6099986 137.672002,40.466 137.24,40.466 C136.807998,40.466 136.406002,40.6159985 136.034,40.916 C135.661998,41.2160015 135.476,41.6569971 135.476,42.239 C135.476,42.8210029 135.667998,43.2589985 136.052,43.553 C136.436002,43.8470015 136.825998,43.994 137.222,43.994 Z M155.258,37.514 C156.086004,37.514 156.571999,37.7419977 156.716,38.198 C156.788,38.4260011 156.824,38.7259981 156.824,39.098 C156.824,39.4700019 156.785,39.7669989 156.707,39.989 C156.629,40.2110011 156.506001,40.3699995 156.338,40.466 C156.085999,40.6100007 155.720002,40.682 155.24,40.682 L154.088,40.61 L154.088,45.434 C154.088,45.8900023 154.031001,46.2289989 153.917,46.451 C153.802999,46.6730011 153.629001,46.8199996 153.395,46.892 C153.160999,46.9640004 152.858002,47 152.486,47 C152.113998,47 151.817001,46.9610004 151.595,46.883 C151.372999,46.8049996 151.214,46.6790009 151.118,46.505 C151.022,46.3309991 150.965,46.1720007 150.947,46.028 C150.929,45.8839993 150.92,45.6740014 150.92,45.398 L150.92,40.628 C150.343997,40.6640002 149.870002,40.682 149.498,40.682 L147.734,40.61 L147.734,45.434 C147.734,45.8900023 147.677001,46.2289989 147.563,46.451 C147.448999,46.6730011 147.275001,46.8199996 147.041,46.892 C146.806999,46.9640004 146.504002,47 146.132,47 C145.759998,47 145.463001,46.9610004 145.241,46.883 C145.018999,46.8049996 144.86,46.6790009 144.764,46.505 C144.668,46.3309991 144.611,46.1720007 144.593,46.028 C144.575,45.8839993 144.566,45.6740014 144.566,45.398 L144.566,40.628 C144.337999,40.6640002 144.092001,40.682 143.828,40.682 C143.563999,40.682 143.345001,40.580001 143.171,40.376 C142.996999,40.171999 142.91,39.8240025 142.91,39.332 C142.91,38.8399975 142.94,38.4830011 143,38.261 C143.06,38.0389989 143.143999,37.8800005 143.252,37.784 C143.444001,37.6279992 143.683999,37.55 143.972,37.55 L144.566,37.622 L144.566,36.668 C144.566,35.7439954 144.895997,34.9070037 145.556,34.157 C146.216003,33.4069962 147.169994,33.032 148.418,33.032 C148.694001,33.032 148.900999,33.0409999 149.039,33.059 C149.177001,33.0770001 149.335999,33.1279996 149.516,33.212 C149.840002,33.3800008 150.002,33.8479962 150.002,34.616 C150.002,35.1920029 149.900001,35.5999988 149.696,35.84 C149.527999,36.044001 149.264002,36.1519999 148.904,36.164 C148.795999,36.1760001 148.628001,36.182 148.4,36.182 C147.955998,36.182 147.734,36.3319985 147.734,36.632 L147.734,37.622 C148.382003,37.5739998 148.939998,37.55 149.408,37.55 L150.92,37.622 L150.92,36.668 C150.92,35.7439954 151.249997,34.9070037 151.91,34.157 C152.570003,33.4069962 153.523994,33.032 154.772,33.032 C155.060001,33.032 155.269999,33.0409999 155.402,33.059 C155.534001,33.0770001 155.689999,33.1279996 155.87,33.212 C156.194002,33.3800008 156.356,33.8479962 156.356,34.616 C156.356,35.1920029 156.254001,35.5999988 156.05,35.84 C155.881999,36.044001 155.624002,36.1519999 155.276,36.164 C155.155999,36.1760001 154.982001,36.182 154.754,36.182 C154.309998,36.182 154.088,36.3319985 154.088,36.632 L154.088,37.622 L155.258,37.514 Z M176.39,34.31 C176.486,34.4900009 176.543,34.6519993 176.561,34.796 C176.579,34.9400007 176.588,35.1499986 176.588,35.426 L176.588,45.416 C176.588,46.2440041 176.360002,46.7299993 175.904,46.874 C175.675999,46.9460004 175.388002,46.982 175.04,46.982 C174.691998,46.982 174.416001,46.9520003 174.212,46.892 C174.007999,46.8319997 173.852001,46.7600004 173.744,46.676 C173.635999,46.5919996 173.552,46.4720008 173.492,46.316 C173.432,46.111999 173.402,45.8000021 173.402,45.38 L173.402,39.35 C173.101999,39.7220019 172.664003,40.312996 172.088,41.123 C171.511997,41.9330041 171.146001,42.439999 170.99,42.644 C170.833999,42.848001 170.726,42.9889996 170.666,43.067 C170.606,43.1450004 170.459001,43.2529993 170.225,43.391 C169.990999,43.5290007 169.739001,43.598 169.469,43.598 C169.198999,43.598 168.953001,43.5350006 168.731,43.409 C168.508999,43.2829994 168.35,43.1600006 168.254,43.04 L168.11,42.842 C167.869999,42.5419985 167.396004,41.9030049 166.688,40.925 C165.979996,39.9469951 165.596,39.4220004 165.536,39.35 L165.536,45.416 C165.536,45.6920014 165.527,45.8989993 165.509,46.037 C165.491,46.1750007 165.434,46.3279992 165.338,46.496 C165.157999,46.8200016 164.690004,46.982 163.934,46.982 C163.201996,46.982 162.746001,46.8200016 162.566,46.496 C162.47,46.3279992 162.413,46.1720007 162.395,46.028 C162.377,45.8839993 162.368,45.6680014 162.368,45.38 L162.368,35.39 C162.368,35.1139986 162.377,34.9070007 162.395,34.769 C162.413,34.6309993 162.47,34.4720009 162.566,34.292 C162.746001,33.9799984 163.213996,33.824 163.97,33.824 C164.294002,33.824 164.572999,33.8629996 164.807,33.941 C165.041001,34.0190004 165.194,34.0999996 165.266,34.184 L165.374,34.292 L169.46,39.656 C171.50001,36.9559865 172.861997,35.1740043 173.546,34.31 C173.750001,33.9859984 174.232996,33.824 174.995,33.824 C175.757004,33.824 176.221999,33.9859984 176.39,34.31 Z M186.623,42.761 C186.256998,43.1150018 185.852002,43.292 185.408,43.292 L181.142,43.292 C181.142,43.6280017 181.339998,43.9099989 181.736,44.138 C182.132002,44.3660011 182.527998,44.48 182.924,44.48 C183.620003,44.48 184.165998,44.4080007 184.562,44.264 L184.76,44.192 C185.048001,44.0599993 185.287999,43.994 185.48,43.994 C185.864002,43.994 186.193999,44.2639973 186.47,44.804 C186.626001,45.1280016 186.704,45.4039989 186.704,45.632 C186.704,46.7000053 185.426013,47.234 182.87,47.234 C181.981996,47.234 181.193003,47.0810015 180.503,46.775 C179.812997,46.4689985 179.276002,46.0640025 178.892,45.56 C178.135996,44.5879951 177.758,43.502006 177.758,42.302 C177.758,40.7899924 178.246995,39.5810045 179.225,38.675 C180.203005,37.7689955 181.423993,37.316 182.888,37.316 C184.556008,37.316 185.779996,37.9039941 186.56,39.08 C186.968002,39.7040031 187.172,40.3849963 187.172,41.123 C187.172,41.8610037 186.989002,42.4069982 186.623,42.761 Z M183.374,41.654 C183.830002,41.654 184.058,41.4620019 184.058,41.078 C184.058,40.8019986 183.953001,40.5800008 183.743,40.412 C183.532999,40.2439992 183.233002,40.16 182.843,40.16 C182.452998,40.16 182.066002,40.3189984 181.682,40.637 C181.297998,40.9550016 181.106,41.2939982 181.106,41.654 L183.374,41.654 Z M196.937,42.761 C196.570998,43.1150018 196.166002,43.292 195.722,43.292 L191.456,43.292 C191.456,43.6280017 191.653998,43.9099989 192.05,44.138 C192.446002,44.3660011 192.841998,44.48 193.238,44.48 C193.934003,44.48 194.479998,44.4080007 194.876,44.264 L195.074,44.192 C195.362001,44.0599993 195.601999,43.994 195.794,43.994 C196.178002,43.994 196.507999,44.2639973 196.784,44.804 C196.940001,45.1280016 197.018,45.4039989 197.018,45.632 C197.018,46.7000053 195.740013,47.234 193.184,47.234 C192.295996,47.234 191.507003,47.0810015 190.817,46.775 C190.126997,46.4689985 189.590002,46.0640025 189.206,45.56 C188.449996,44.5879951 188.072,43.502006 188.072,42.302 C188.072,40.7899924 188.560995,39.5810045 189.539,38.675 C190.517005,37.7689955 191.737993,37.316 193.202,37.316 C194.870008,37.316 196.093996,37.9039941 196.874,39.08 C197.282002,39.7040031 197.486,40.3849963 197.486,41.123 C197.486,41.8610037 197.303002,42.4069982 196.937,42.761 Z M193.688,41.654 C194.144002,41.654 194.372,41.4620019 194.372,41.078 C194.372,40.8019986 194.267001,40.5800008 194.057,40.412 C193.846999,40.2439992 193.547002,40.16 193.157,40.16 C192.766998,40.16 192.380002,40.3189984 191.996,40.637 C191.611998,40.9550016 191.42,41.2939982 191.42,41.654 L193.688,41.654 Z M204.164,40.7 L202.994,40.628 L202.994,43.112 C202.994,43.4360016 203.044999,43.6699993 203.147,43.814 C203.249001,43.9580007 203.440999,44.03 203.723,44.03 C204.005001,44.03 204.220999,44.0389999 204.371,44.057 C204.521001,44.0750001 204.679999,44.1319995 204.848,44.228 C205.124001,44.3840008 205.262,44.7859968 205.262,45.434 C205.262,46.1900038 205.094002,46.6519992 204.758,46.82 C204.577999,46.9040004 204.419001,46.9549999 204.281,46.973 C204.142999,46.9910001 203.942001,47 203.678,47 C202.429994,47 201.482003,46.7180028 200.834,46.154 C200.185997,45.5899972 199.862,44.6360067 199.862,43.292 L199.862,40.628 C199.633999,40.6640002 199.388001,40.682 199.124,40.682 C198.859999,40.682 198.641001,40.580001 198.467,40.376 C198.292999,40.171999 198.206,39.8240025 198.206,39.332 C198.206,38.8399975 198.236,38.4830011 198.296,38.261 C198.356,38.0389989 198.439999,37.8800005 198.548,37.784 C198.740001,37.6279992 198.979999,37.55 199.268,37.55 L199.862,37.622 L199.862,35.768 C199.862,35.4919986 199.871,35.2880007 199.889,35.156 C199.907,35.0239993 199.964,34.8800008 200.06,34.724 C200.216001,34.4239985 200.677996,34.274 201.446,34.274 C202.262004,34.274 202.747999,34.4959978 202.904,34.94 C202.964,35.132001 202.994,35.4379979 202.994,35.858 L202.994,37.622 C203.522003,37.5739998 203.920999,37.55 204.191,37.55 C204.461001,37.55 204.664999,37.5589999 204.803,37.577 C204.941001,37.5950001 205.099999,37.6519995 205.28,37.748 C205.592002,37.9040008 205.748,38.3659962 205.748,39.134 C205.748,39.8900038 205.586002,40.3519992 205.262,40.52 C205.081999,40.6040004 204.923001,40.6549999 204.785,40.673 C204.646999,40.6910001 204.440001,40.7 204.164,40.7 Z M206.738,39.098 C206.738,38.8219986 206.747,38.6150007 206.765,38.477 C206.783,38.3389993 206.834,38.1800009 206.918,38 C207.086001,37.6879984 207.553996,37.532 208.322,37.532 C208.898003,37.532 209.305999,37.633999 209.546,37.838 C209.750001,38.0060008 209.858,38.2639983 209.87,38.612 C209.882,38.7320006 209.888,38.9059989 209.888,39.134 L209.888,45.434 C209.888,45.7100014 209.879,45.9169993 209.861,46.055 C209.843,46.1930007 209.786,46.3519991 209.69,46.532 C209.533999,46.8440016 209.072004,47 208.304,47 C207.547996,47 207.086001,46.8380016 206.918,46.514 C206.834,46.3339991 206.783,46.1780007 206.765,46.046 C206.747,45.9139993 206.738,45.7040014 206.738,45.416 L206.738,39.098 Z M209.222,36.128 C208.993999,36.2000004 208.691002,36.236 208.313,36.236 C207.934998,36.236 207.632001,36.2000004 207.404,36.128 C207.175999,36.0559996 207.017,35.9300009 206.927,35.75 C206.837,35.5699991 206.783,35.4110007 206.765,35.273 C206.747,35.1349993 206.738,34.9280014 206.738,34.652 C206.738,34.3759986 206.747,34.1690007 206.765,34.031 C206.783,33.8929993 206.834,33.7400008 206.918,33.572 C207.086001,33.2479984 207.553996,33.086 208.322,33.086 C209.078004,33.086 209.533999,33.2479984 209.69,33.572 C209.786,33.7520009 209.843,33.9109993 209.861,34.049 C209.879,34.1870007 209.888,34.3939986 209.888,34.67 C209.888,34.9460014 209.879,35.1529993 209.861,35.291 C209.843,35.4290007 209.789,35.5849991 209.699,35.759 C209.609,35.9330009 209.450001,36.0559996 209.222,36.128 Z M214.442,38.6659123 C214.442,38.6659416 214.442,38.6659708 214.442,38.666 C214.443248,38.6638152 214.444537,38.6616061 214.445867,38.6593726 L214.442,38.6659123 Z M214.445867,38.6593726 C214.495659,38.5757331 214.602369,38.4579433 214.766,38.306 C214.934001,38.1499992 215.095999,38.0240005 215.252,37.928 C215.660002,37.6519986 216.109998,37.514 216.602,37.514 C217.802006,37.514 218.800996,37.9729954 219.599,38.891 C220.397004,39.8090046 220.796,40.9279934 220.796,42.248 L220.796,45.416 C220.796,45.6920014 220.787,45.8989993 220.769,46.037 C220.751,46.1750007 220.7,46.3279992 220.616,46.496 C220.447999,46.8200016 219.980004,46.982 219.212,46.982 C218.359996,46.982 217.868001,46.7600022 217.736,46.316 C217.664,46.111999 217.628,45.806002 217.628,45.398 L217.628,42.23 C217.628,41.7379975 217.487001,41.3540014 217.205,41.078 C216.922999,40.8019986 216.545002,40.664 216.071,40.664 C215.596998,40.664 215.213001,40.8079986 214.919,41.096 C214.624999,41.3840014 214.478,41.7619977 214.478,42.23 L214.478,45.416 C214.478,45.6920014 214.469,45.8989993 214.451,46.037 C214.433,46.1750007 214.376,46.3279992 214.28,46.496 C214.123999,46.8200016 213.662004,46.982 212.894,46.982 C212.137996,46.982 211.676001,46.8200016 211.508,46.496 C211.424,46.3159991 211.373,46.1570007 211.355,46.019 C211.337,45.8809993 211.328,45.6740014 211.328,45.398 L211.328,39.026 C211.328,38.7619987 211.337,38.5610007 211.355,38.423 C211.373,38.2849993 211.43,38.1320008 211.526,37.964 C211.694001,37.6639985 212.155996,37.514 212.912,37.514 C213.644004,37.514 214.093999,37.6519986 214.262,37.928 C214.381988,38.1319803 214.441988,38.3779486 214.442,38.6659123 L214.445867,38.6593726 Z M228.248,45.812 C227.791998,46.412003 227.066005,46.712 226.07,46.712 C225.073995,46.712 224.141004,46.2530046 223.271,45.335 C222.400996,44.4169954 221.966,43.3460061 221.966,42.122 C221.966,40.8979939 222.403996,39.8240046 223.28,38.9 C224.156004,37.9759954 225.115995,37.514 226.16,37.514 C226.568002,37.514 226.939998,37.5889993 227.276,37.739 C227.612002,37.8890007 227.842999,38.0269994 227.969,38.153 C228.095001,38.2790006 228.194,38.3959995 228.266,38.504 C228.302,38.1679983 228.424999,37.9130009 228.635,37.739 C228.845001,37.5649991 229.183998,37.478 229.652,37.478 C230.120002,37.478 230.461999,37.5139996 230.678,37.586 C230.894001,37.6580004 231.047,37.7809991 231.137,37.955 C231.227,38.1290009 231.281,38.2819993 231.299,38.414 C231.317,38.5460007 231.326,38.7499986 231.326,39.026 L231.326,46.478 C231.326,47.8580069 230.846005,48.9709958 229.886,49.817 C228.925995,50.6630042 227.846006,51.086 226.646,51.086 C225.733995,51.086 224.864004,50.8640022 224.036,50.42 C223.207996,49.9759978 222.794,49.5740018 222.794,49.214 C222.794,48.7459977 222.973998,48.3320018 223.334,47.972 C223.562001,47.7199987 223.738999,47.5460005 223.865,47.45 C223.991001,47.3539995 224.137999,47.306 224.306,47.306 C224.474001,47.306 224.647999,47.3779993 224.828,47.522 C225.404003,47.9660022 226.027997,48.188 226.7,48.188 C227.156002,48.188 227.527999,48.0080018 227.816,47.648 C228.104001,47.2879982 228.248,46.8560025 228.248,46.352 L228.248,45.812 Z M225.503,43.184 C225.809002,43.4960016 226.180998,43.652 226.619,43.652 C227.057002,43.652 227.419999,43.4930016 227.708,43.175 C227.996001,42.8569984 228.14,42.5090019 228.14,42.131 C228.14,41.7529981 228.002001,41.3990017 227.726,41.069 C227.449999,40.7389984 227.078002,40.574 226.61,40.574 C226.141998,40.574 225.764001,40.7359984 225.476,41.06 C225.187999,41.3840016 225.044,41.7409981 225.044,42.131 C225.044,42.5210019 225.196998,42.8719984 225.503,43.184 Z" id="Kick-off-Meeting" fill="#2D2D4F"></path>
                </g>
                <g id="planning" transform="translate(40.000000, 220.000000) rotate(-90.000000) translate(-40.000000, -220.000000) translate(-180.000000, 180.000000)">
                    <rect id="white-rect" fill="#FFFFFF" x="0" y="0" width="440" height="80" rx="10"></rect>
                    <path d="M192.926,38.594 C192.926,39.3740039 192.770002,40.0789968 192.458,40.709 C192.145998,41.3390031 191.744002,41.8399981 191.252,42.212 C190.255995,42.9800038 189.224005,43.364 188.156,43.364 L185.906,43.364 L185.906,45.398 C185.906,45.6740014 185.897,45.8809993 185.879,46.019 C185.861,46.1570007 185.804,46.3159991 185.708,46.496 C185.539999,46.8200016 185.072004,46.982 184.304,46.982 C183.463996,46.982 182.972001,46.7600022 182.828,46.316 C182.756,46.111999 182.72,45.8000021 182.72,45.38 L182.72,35.39 C182.72,35.1139986 182.729,34.9070007 182.747,34.769 C182.765,34.6309993 182.822,34.4720009 182.918,34.292 C183.086001,33.9679984 183.553996,33.806 184.322,33.806 L188.174,33.806 C189.230005,33.806 190.255995,34.1899962 191.252,34.958 C191.744002,35.3300019 192.145998,35.8339968 192.458,36.47 C192.770002,37.1060032 192.926,37.8139961 192.926,38.594 Z M189.236,39.782 C189.584002,39.5179987 189.758,39.1220026 189.758,38.594 C189.758,38.0659974 189.584002,37.6670013 189.236,37.397 C188.887998,37.1269986 188.528002,36.992 188.156,36.992 L185.906,36.992 L185.906,40.178 L188.174,40.178 C188.534002,40.178 188.887998,40.0460013 189.236,39.782 Z M194.096,34.634 C194.096,34.3579986 194.105,34.1510007 194.123,34.013 C194.141,33.8749993 194.192,33.7160009 194.276,33.536 C194.444001,33.2119984 194.911996,33.05 195.68,33.05 C196.412004,33.05 196.867999,33.2119984 197.048,33.536 C197.144,33.7160009 197.201,33.8779993 197.219,34.022 C197.237,34.1660007 197.246,34.3759986 197.246,34.652 L197.246,42.986 C197.246,43.4180022 197.282,43.6909994 197.354,43.805 C197.426,43.9190006 197.584999,43.976 197.831,43.976 C198.077001,43.976 198.242,43.9849999 198.326,44.003 C198.41,44.0210001 198.511999,44.0719996 198.632,44.156 C198.872001,44.3120008 198.992,44.7379965 198.992,45.434 C198.992,46.1900038 198.872001,46.6519992 198.632,46.82 C198.319998,47.0360011 197.576006,47.0720007 196.4,46.928 C195.475995,46.8079994 194.876001,46.5020025 194.6,46.01 C194.263998,45.4219971 194.096,44.4860064 194.096,43.202 L194.096,34.634 Z M206.138,38.522 C206.21,37.8499966 206.683996,37.514 207.56,37.514 C208.028002,37.514 208.375999,37.5499996 208.604,37.622 C208.832001,37.6940004 208.991,37.8199991 209.081,38 C209.171,38.1800009 209.225,38.3389993 209.243,38.477 C209.261,38.6150007 209.27,38.8219986 209.27,39.098 L209.27,45.398 C209.27,45.6740014 209.261,45.8809993 209.243,46.019 C209.225,46.1570007 209.174,46.3159991 209.09,46.496 C208.921999,46.8080016 208.511003,46.964 207.857,46.964 C207.202997,46.964 206.765001,46.8830008 206.543,46.721 C206.320999,46.5589992 206.192,46.3220016 206.156,46.01 C205.711998,46.6460032 204.971005,46.964 203.933,46.964 C202.894995,46.964 201.932004,46.4900047 201.044,45.542 C200.155996,44.5939953 199.712,43.4930063 199.712,42.239 C199.712,40.9849937 200.158996,39.8870047 201.053,38.945 C201.947004,38.0029953 202.927995,37.532 203.996,37.532 C204.404002,37.532 204.775998,37.6039993 205.112,37.748 C205.448002,37.8920007 205.681999,38.0269994 205.814,38.153 C205.946001,38.2790006 206.054,38.4019994 206.138,38.522 Z M203.33,43.337 C203.642002,43.6550016 204.019998,43.814 204.464,43.814 C204.908002,43.814 205.276999,43.6520016 205.571,43.328 C205.865001,43.0039984 206.012,42.6470019 206.012,42.257 C206.012,41.866998 205.871001,41.5040017 205.589,41.168 C205.306999,40.8319983 204.929002,40.664 204.455,40.664 C203.980998,40.664 203.597001,40.8319983 203.303,41.168 C203.008999,41.5040017 202.862,41.869998 202.862,42.266 C202.862,42.662002 203.017998,43.0189984 203.33,43.337 Z M213.824,38.6659123 C213.824,38.6659416 213.824,38.6659708 213.824,38.666 C213.825248,38.6638152 213.826537,38.6616061 213.827867,38.6593726 L213.824,38.6659123 Z M213.827867,38.6593726 C213.877659,38.5757331 213.984369,38.4579433 214.148,38.306 C214.316001,38.1499992 214.477999,38.0240005 214.634,37.928 C215.042002,37.6519986 215.491998,37.514 215.984,37.514 C217.184006,37.514 218.182996,37.9729954 218.981,38.891 C219.779004,39.8090046 220.178,40.9279934 220.178,42.248 L220.178,45.416 C220.178,45.6920014 220.169,45.8989993 220.151,46.037 C220.133,46.1750007 220.082,46.3279992 219.998,46.496 C219.829999,46.8200016 219.362004,46.982 218.594,46.982 C217.741996,46.982 217.250001,46.7600022 217.118,46.316 C217.046,46.111999 217.01,45.806002 217.01,45.398 L217.01,42.23 C217.01,41.7379975 216.869001,41.3540014 216.587,41.078 C216.304999,40.8019986 215.927002,40.664 215.453,40.664 C214.978998,40.664 214.595001,40.8079986 214.301,41.096 C214.006999,41.3840014 213.86,41.7619977 213.86,42.23 L213.86,45.416 C213.86,45.6920014 213.851,45.8989993 213.833,46.037 C213.815,46.1750007 213.758,46.3279992 213.662,46.496 C213.505999,46.8200016 213.044004,46.982 212.276,46.982 C211.519996,46.982 211.058001,46.8200016 210.89,46.496 C210.806,46.3159991 210.755,46.1570007 210.737,46.019 C210.719,45.8809993 210.71,45.6740014 210.71,45.398 L210.71,39.026 C210.71,38.7619987 210.719,38.5610007 210.737,38.423 C210.755,38.2849993 210.812,38.1320008 210.908,37.964 C211.076001,37.6639985 211.537996,37.514 212.294,37.514 C213.026004,37.514 213.475999,37.6519986 213.644,37.928 C213.763988,38.1319803 213.823988,38.3779486 213.824,38.6659123 L213.827867,38.6593726 Z M224.732,38.6659123 C224.732,38.6659416 224.732,38.6659708 224.732,38.666 C224.733248,38.6638152 224.734537,38.6616061 224.735867,38.6593726 L224.732,38.6659123 Z M224.735867,38.6593726 C224.785659,38.5757331 224.892369,38.4579433 225.056,38.306 C225.224001,38.1499992 225.385999,38.0240005 225.542,37.928 C225.950002,37.6519986 226.399998,37.514 226.892,37.514 C228.092006,37.514 229.090996,37.9729954 229.889,38.891 C230.687004,39.8090046 231.086,40.9279934 231.086,42.248 L231.086,45.416 C231.086,45.6920014 231.077,45.8989993 231.059,46.037 C231.041,46.1750007 230.99,46.3279992 230.906,46.496 C230.737999,46.8200016 230.270004,46.982 229.502,46.982 C228.649996,46.982 228.158001,46.7600022 228.026,46.316 C227.954,46.111999 227.918,45.806002 227.918,45.398 L227.918,42.23 C227.918,41.7379975 227.777001,41.3540014 227.495,41.078 C227.212999,40.8019986 226.835002,40.664 226.361,40.664 C225.886998,40.664 225.503001,40.8079986 225.209,41.096 C224.914999,41.3840014 224.768,41.7619977 224.768,42.23 L224.768,45.416 C224.768,45.6920014 224.759,45.8989993 224.741,46.037 C224.723,46.1750007 224.666,46.3279992 224.57,46.496 C224.413999,46.8200016 223.952004,46.982 223.184,46.982 C222.427996,46.982 221.966001,46.8200016 221.798,46.496 C221.714,46.3159991 221.663,46.1570007 221.645,46.019 C221.627,45.8809993 221.618,45.6740014 221.618,45.398 L221.618,39.026 C221.618,38.7619987 221.627,38.5610007 221.645,38.423 C221.663,38.2849993 221.72,38.1320008 221.816,37.964 C221.984001,37.6639985 222.445996,37.514 223.202,37.514 C223.934004,37.514 224.383999,37.6519986 224.552,37.928 C224.671988,38.1319803 224.731988,38.3779486 224.732,38.6659123 L224.735867,38.6593726 Z M232.526,39.098 C232.526,38.8219986 232.535,38.6150007 232.553,38.477 C232.571,38.3389993 232.622,38.1800009 232.706,38 C232.874001,37.6879984 233.341996,37.532 234.11,37.532 C234.686003,37.532 235.093999,37.633999 235.334,37.838 C235.538001,38.0060008 235.646,38.2639983 235.658,38.612 C235.67,38.7320006 235.676,38.9059989 235.676,39.134 L235.676,45.434 C235.676,45.7100014 235.667,45.9169993 235.649,46.055 C235.631,46.1930007 235.574,46.3519991 235.478,46.532 C235.321999,46.8440016 234.860004,47 234.092,47 C233.335996,47 232.874001,46.8380016 232.706,46.514 C232.622,46.3339991 232.571,46.1780007 232.553,46.046 C232.535,45.9139993 232.526,45.7040014 232.526,45.416 L232.526,39.098 Z M235.01,36.128 C234.781999,36.2000004 234.479002,36.236 234.101,36.236 C233.722998,36.236 233.420001,36.2000004 233.192,36.128 C232.963999,36.0559996 232.805,35.9300009 232.715,35.75 C232.625,35.5699991 232.571,35.4110007 232.553,35.273 C232.535,35.1349993 232.526,34.9280014 232.526,34.652 C232.526,34.3759986 232.535,34.1690007 232.553,34.031 C232.571,33.8929993 232.622,33.7400008 232.706,33.572 C232.874001,33.2479984 233.341996,33.086 234.11,33.086 C234.866004,33.086 235.321999,33.2479984 235.478,33.572 C235.574,33.7520009 235.631,33.9109993 235.649,34.049 C235.667,34.1870007 235.676,34.3939986 235.676,34.67 C235.676,34.9460014 235.667,35.1529993 235.649,35.291 C235.631,35.4290007 235.577,35.5849991 235.487,35.759 C235.397,35.9330009 235.238001,36.0559996 235.01,36.128 Z M240.23,38.6659123 C240.23,38.6659416 240.23,38.6659708 240.23,38.666 C240.231248,38.6638152 240.232537,38.6616061 240.233867,38.6593726 L240.23,38.6659123 Z M240.233867,38.6593726 C240.283659,38.5757331 240.390369,38.4579433 240.554,38.306 C240.722001,38.1499992 240.883999,38.0240005 241.04,37.928 C241.448002,37.6519986 241.897998,37.514 242.39,37.514 C243.590006,37.514 244.588996,37.9729954 245.387,38.891 C246.185004,39.8090046 246.584,40.9279934 246.584,42.248 L246.584,45.416 C246.584,45.6920014 246.575,45.8989993 246.557,46.037 C246.539,46.1750007 246.488,46.3279992 246.404,46.496 C246.235999,46.8200016 245.768004,46.982 245,46.982 C244.147996,46.982 243.656001,46.7600022 243.524,46.316 C243.452,46.111999 243.416,45.806002 243.416,45.398 L243.416,42.23 C243.416,41.7379975 243.275001,41.3540014 242.993,41.078 C242.710999,40.8019986 242.333002,40.664 241.859,40.664 C241.384998,40.664 241.001001,40.8079986 240.707,41.096 C240.412999,41.3840014 240.266,41.7619977 240.266,42.23 L240.266,45.416 C240.266,45.6920014 240.257,45.8989993 240.239,46.037 C240.221,46.1750007 240.164,46.3279992 240.068,46.496 C239.911999,46.8200016 239.450004,46.982 238.682,46.982 C237.925996,46.982 237.464001,46.8200016 237.296,46.496 C237.212,46.3159991 237.161,46.1570007 237.143,46.019 C237.125,45.8809993 237.116,45.6740014 237.116,45.398 L237.116,39.026 C237.116,38.7619987 237.125,38.5610007 237.143,38.423 C237.161,38.2849993 237.218,38.1320008 237.314,37.964 C237.482001,37.6639985 237.943996,37.514 238.7,37.514 C239.432004,37.514 239.881999,37.6519986 240.05,37.928 C240.169988,38.1319803 240.229988,38.3779486 240.23,38.6659123 L240.233867,38.6593726 Z M254.036,45.812 C253.579998,46.412003 252.854005,46.712 251.858,46.712 C250.861995,46.712 249.929004,46.2530046 249.059,45.335 C248.188996,44.4169954 247.754,43.3460061 247.754,42.122 C247.754,40.8979939 248.191996,39.8240046 249.068,38.9 C249.944004,37.9759954 250.903995,37.514 251.948,37.514 C252.356002,37.514 252.727998,37.5889993 253.064,37.739 C253.400002,37.8890007 253.630999,38.0269994 253.757,38.153 C253.883001,38.2790006 253.982,38.3959995 254.054,38.504 C254.09,38.1679983 254.212999,37.9130009 254.423,37.739 C254.633001,37.5649991 254.971998,37.478 255.44,37.478 C255.908002,37.478 256.249999,37.5139996 256.466,37.586 C256.682001,37.6580004 256.835,37.7809991 256.925,37.955 C257.015,38.1290009 257.069,38.2819993 257.087,38.414 C257.105,38.5460007 257.114,38.7499986 257.114,39.026 L257.114,46.478 C257.114,47.8580069 256.634005,48.9709958 255.674,49.817 C254.713995,50.6630042 253.634006,51.086 252.434,51.086 C251.521995,51.086 250.652004,50.8640022 249.824,50.42 C248.995996,49.9759978 248.582,49.5740018 248.582,49.214 C248.582,48.7459977 248.761998,48.3320018 249.122,47.972 C249.350001,47.7199987 249.526999,47.5460005 249.653,47.45 C249.779001,47.3539995 249.925999,47.306 250.094,47.306 C250.262001,47.306 250.435999,47.3779993 250.616,47.522 C251.192003,47.9660022 251.815997,48.188 252.488,48.188 C252.944002,48.188 253.315999,48.0080018 253.604,47.648 C253.892001,47.2879982 254.036,46.8560025 254.036,46.352 L254.036,45.812 Z M251.291,43.184 C251.597002,43.4960016 251.968998,43.652 252.407,43.652 C252.845002,43.652 253.207999,43.4930016 253.496,43.175 C253.784001,42.8569984 253.928,42.5090019 253.928,42.131 C253.928,41.7529981 253.790001,41.3990017 253.514,41.069 C253.237999,40.7389984 252.866002,40.574 252.398,40.574 C251.929998,40.574 251.552001,40.7359984 251.264,41.06 C250.975999,41.3840016 250.832,41.7409981 250.832,42.131 C250.832,42.5210019 250.984998,42.8719984 251.291,43.184 Z" id="Planning" fill="#2D2D4F"></path>
                </g>
            </g>
        </g>
    </g>
</svg>