<?xml version="1.0" encoding="UTF-8"?>
<svg width="60px" height="60px" viewBox="0 0 60 60" version="1.1" xmlns="http://www.w3.org/2000/svg" xmlns:xlink="http://www.w3.org/1999/xlink">
    <!-- Generator: Sketch 50.2 (55047) - http://www.bohemiancoding.com/sketch -->
    <title>icons / challenges</title>
    <desc>Created with Sketch.</desc>
    <defs></defs>
    <g id="icons-/-challenges" stroke="none" stroke-width="1" fill="none" fill-rule="evenodd">
        <circle id="Oval" fill="#99FF99" cx="30" cy="30" r="30"></circle>
        <path d="M43,23.252035 L43,20 C43,18.8954305 42.1045695,18 41,18 L35,18 C34.4477153,18 34,17.5522847 34,17 L34,16 C34,13.790861 32.209139,12 30,12 C27.790861,12 26,13.790861 26,16 L26,17 C26,17.5522847 25.5522847,18 25,18 L19,18 C17.8954305,18 17,18.8954305 17,20 L17,42 C17,43.1045695 17.8954305,44 19,44 L41,44 C42.1045695,44 43,43.1045695 43,42 L43,38.747965 C39.5495456,37.8598794 37,34.7276789 37,31 C37,27.2723211 39.5495456,24.1401206 43,23.252035 Z M41,14 C44.3137085,14 47,16.6862915 47,20 L47,26 C47,26.5522847 46.5522847,27 46,27 L45,27 C42.790861,27 41,28.790861 41,31 C41,33.209139 42.790861,35 45,35 L46,35 C46.5522847,35 47,35.4477153 47,36 L47,42 C47,45.3137085 44.3137085,48 41,48 L19,48 C15.6862915,48 13,45.3137085 13,42 L13,20 C13,16.6862915 15.6862915,14 19,14 L22.252035,14 C23.1401206,10.5495456 26.2723211,8 30,8 C33.7276789,8 36.8598794,10.5495456 37.747965,14 L41,14 Z" id="puzzle" fill="#FFFFFF" fill-rule="nonzero"></path>
    </g>
</svg>