<?xml version="1.0" encoding="UTF-8"?>
<svg width="60px" height="60px" viewBox="0 0 60 60" version="1.1" xmlns="http://www.w3.org/2000/svg" xmlns:xlink="http://www.w3.org/1999/xlink">
    <!-- Generator: Sketch 50.2 (55047) - http://www.bohemiancoding.com/sketch -->
    <title>icons / important facts</title>
    <desc>Created with Sketch.</desc>
    <defs></defs>
    <g id="icons-/-important-facts" stroke="none" stroke-width="1" fill="none" fill-rule="evenodd">
        <circle id="Oval" fill="#99FF99" cx="30" cy="30" r="30"></circle>
        <path d="M27,28.9771863 C27,28.4524689 27.0171427,28.0589367 27.0514286,27.7965779 C27.0857145,27.5342192 27.1828563,27.2319409 27.3428571,26.8897338 C27.6628587,26.296575 28.5542784,26 30.0171429,26 C31.1142912,26 31.8914263,26.1939144 32.3485714,26.581749 C32.7371448,26.9011423 32.942857,27.3916317 32.9657143,28.0532319 C32.9885715,28.28137 33,28.6121651 33,29.0456274 L33,41.0228137 C33,41.5475311 32.9828573,41.9410633 32.9485714,42.2034221 C32.9142855,42.4657808 32.8057152,42.7680591 32.6228571,43.1102662 C32.3257128,43.703425 31.4457216,44 29.9828571,44 C28.5428499,44 27.6628587,43.6920183 27.3428571,43.0760456 C27.1828563,42.7338386 27.0857145,42.4372636 27.0514286,42.1863118 C27.0171427,41.93536 27,41.5361244 27,40.9885932 L27,28.9771863 Z M31.7314286,22.7942857 C31.2971407,22.9314293 30.7200036,23 30,23 C29.2799964,23 28.7028593,22.9314293 28.2685714,22.7942857 C27.8342835,22.6571422 27.5314294,22.4171446 27.36,22.0742857 C27.1885706,21.7314269 27.0857145,21.4285727 27.0514286,21.1657143 C27.0171427,20.9028558 27,20.5085741 27,19.9828571 C27,19.4571402 27.0171427,19.0628585 27.0514286,18.8 C27.0857145,18.5371415 27.1828563,18.2457159 27.3428571,17.9257143 C27.6628587,17.3085683 28.5542784,17 30.0171429,17 C31.4571501,17 32.3257128,17.3085683 32.6228571,17.9257143 C32.8057152,18.2685731 32.9142855,18.5714273 32.9485714,18.8342857 C32.9828573,19.0971442 33,19.4914259 33,20.0171429 C33,20.5428598 32.9828573,20.9371415 32.9485714,21.2 C32.9142855,21.4628585 32.8114294,21.7599983 32.64,22.0914286 C32.4685706,22.4228588 32.1657165,22.6571422 31.7314286,22.7942857 Z" id="i" fill="#FFFFFF"></path>
    </g>
</svg>