<?xml version="1.0" encoding="UTF-8"?>
<svg width="60px" height="60px" viewBox="0 0 60 60" version="1.1" xmlns="http://www.w3.org/2000/svg" xmlns:xlink="http://www.w3.org/1999/xlink">
    <!-- Generator: Sketch 50.2 (55047) - http://www.bohemiancoding.com/sketch -->
    <title>increasing revenue_active</title>
    <desc>Created with Sketch.</desc>
    <defs></defs>
    <g id="02-Sell-better" stroke="none" stroke-width="1" fill="none" fill-rule="evenodd">
        <g id="wasteless_sell-better" transform="translate(-600.000000, -4352.000000)">
            <g id="%" transform="translate(202.000000, 4308.000000)">
                <g id="Increase-in-sales" transform="translate(352.000000, 0.000000)">
                    <g id="icons-/-increasing-revenue-/-active" transform="translate(46.000000, 44.000000)">
                        <circle id="Oval-7" stroke="#99FF99" stroke-width="4" fill="#FFFFFF" cx="30" cy="30" r="28"></circle>
                        <path d="M37.65,34.252 C37.65,36.1240094 37.1100054,37.6239944 36.03,38.752 C34.9499946,39.8800056 33.6420077,40.6239982 32.106,40.984 L32.106,43.288 C32.106,44.1280042 32.0280008,44.7159983 31.872,45.052 C31.7159992,45.3880017 31.4880015,45.6159994 31.188,45.736 C30.8879985,45.8560006 30.4860025,45.916 29.982,45.916 C29.4779975,45.916 29.0760015,45.8560006 28.776,45.736 C28.4759985,45.6159994 28.2660006,45.4000016 28.146,45.088 C27.9779992,44.679998 27.894,44.0680041 27.894,43.252 L27.894,41.02 C26.9099951,40.8039989 26.022004,40.4440025 25.23,39.94 C24.437996,39.4359975 23.8860016,38.9920019 23.574,38.608 L23.106,37.996 C22.6019975,37.3479968 22.35,36.7840024 22.35,36.304 C22.35,35.8239976 22.7579959,35.188004 23.574,34.396 C24.0540024,33.9399977 24.5639973,33.712 25.104,33.712 C25.6440027,33.712 26.3939952,34.1919952 27.354,35.152 C28.0980037,36.0640046 28.9379953,36.52 29.874,36.52 C31.6500089,36.52 32.538,35.7880073 32.538,34.324 C32.538,33.7959974 32.2020034,33.3880014 31.53,33.1 C30.8579966,32.8119986 30.0420048,32.5540011 29.082,32.326 C28.1219952,32.0979989 27.1620048,31.7920019 26.202,31.408 C25.2419952,31.0239981 24.4260034,30.3640047 23.754,29.428 C23.0819966,28.4919953 22.746,27.3040072 22.746,25.864 C22.746,24.4239928 23.2019954,23.1280058 24.114,21.976 C25.0260046,20.8239942 26.285992,20.0800017 27.894,19.744 L27.894,17.728 C27.894,16.9119959 27.9659993,16.3240018 28.11,15.964 C28.3500012,15.3879971 28.9859948,15.1 30.018,15.1 C30.6660032,15.1 31.1519984,15.2379986 31.476,15.514 C31.8000016,15.7900014 31.9859998,16.0839984 32.034,16.396 C32.0820002,16.7080016 32.106,17.163997 32.106,17.764 L32.106,19.78 C32.7780034,19.9240007 33.3899972,20.1279987 33.942,20.392 C34.4940028,20.6560013 34.8779989,20.8719992 35.094,21.04 L35.418,21.328 L35.562,21.436 C36.162003,21.9880028 36.462,22.4439982 36.462,22.804 C36.462,23.1640018 36.1800028,23.7639958 35.616,24.604 C35.0519972,25.4440042 34.4340034,25.864 33.762,25.864 C33.3299978,25.864 32.9640015,25.7560011 32.664,25.54 C32.3639985,25.3239989 32.1300008,25.1440007 31.962,25 C31.7939992,24.8559993 31.6380007,24.7360005 31.494,24.64 C31.085998,24.3759987 30.5700031,24.244 29.946,24.244 C29.3219969,24.244 28.806002,24.3939985 28.398,24.694 C27.989998,24.9940015 27.786,25.4079974 27.786,25.936 C27.786,26.4640026 28.0319975,26.8899984 28.524,27.214 C29.0160025,27.5380016 29.6219964,27.7539995 30.342,27.862 C31.0620036,27.9700005 31.8539957,28.1499987 32.718,28.402 C33.5820043,28.6540013 34.3739964,28.9479983 35.094,29.284 C35.8140036,29.6200017 36.4199975,30.2139957 36.912,31.066 C37.4040025,31.9180043 37.65,32.9799936 37.65,34.252 Z" id="$" fill="#C0C0CC"></path>
                    </g>
                </g>
            </g>
        </g>
    </g>
</svg>