<?xml version="1.0" encoding="UTF-8"?>
<svg width="60px" height="60px" viewBox="0 0 60 60" version="1.1" xmlns="http://www.w3.org/2000/svg" xmlns:xlink="http://www.w3.org/1999/xlink">
    <!-- Generator: Sketch 50.2 (55047) - http://www.bohemiancoding.com/sketch -->
    <title>icons / reducing out of stock / green</title>
    <desc>Created with Sketch.</desc>
    <defs></defs>
    <g id="icons-/-reducing-out-of-stock-/-green" stroke="none" stroke-width="1" fill="none" fill-rule="evenodd">
        <circle id="Oval-7" stroke="#99FF99" stroke-width="4" fill="#99FF99" cx="30" cy="30" r="28"></circle>
        <path d="M39,45 C37.3431458,45 36,43.6568542 36,42 C36,40.3431458 37.3431458,39 39,39 C40.6568542,39 42,40.3431458 42,42 C42,43.6568542 40.6568542,45 39,45 Z M27,45 C25.3431458,45 24,43.6568542 24,42 C24,40.3431458 25.3431458,39 27,39 C28.6568542,39 30,40.3431458 30,42 C30,43.6568542 28.6568542,45 27,45 Z M41.253979,36.8726584 L23.7022469,36.8726584 C22.7151047,36.8726584 21.8756055,36.1524361 21.7255035,35.1767727 L19.9035619,23.3341524 L14.8726584,21.4475636 C13.8384177,21.0597233 13.3144066,19.906899 13.7022469,18.8726584 C14.0926691,17.8315324 15.2429687,17.2926442 16.292787,17.6590513 L21.8650883,19.6038936 C22.5634789,19.8476456 23.0703028,20.4569683 23.1827804,21.1880725 L25,33 L41.253979,33 C42.3233841,33 43.1903082,33.8669241 43.1903082,34.9363292 C43.1903082,36.0057343 42.3233841,36.8726584 41.253979,36.8726584 Z M30,26 L39,26 C40.1045695,26 41,26.8954305 41,28 C41,29.1045695 40.1045695,30 39,30 L30,30 C28.8954305,30 28,29.1045695 28,28 C28,26.8954305 28.8954305,26 30,26 Z M28,20 L37,20 C38.1045695,20 39,20.8954305 39,22 C39,23.1045695 38.1045695,24 37,24 L28,24 C26.8954305,24 26,23.1045695 26,22 C26,20.8954305 26.8954305,20 28,20 Z" id="Oval-3" fill="#FFFFFF"></path>
    </g>
</svg>