<?xml version="1.0" encoding="UTF-8"?>
<svg width="36px" height="36px" viewBox="0 0 36 36" version="1.1" xmlns="http://www.w3.org/2000/svg" xmlns:xlink="http://www.w3.org/1999/xlink">
    <!-- Generator: Sketch 50.2 (55047) - http://www.bohemiancoding.com/sketch -->
    <title>icons / company icons / about</title>
    <desc>Created with Sketch.</desc>
    <defs></defs>
    <g id="Homepage" stroke="none" stroke-width="1" fill="none" fill-rule="evenodd">
        <g id="wasteless_home-page_UI_menu" transform="translate(-694.000000, -136.000000)">
            <g id="company-menu" transform="translate(644.000000, 88.000000)">
                <g id="icons-/-company-icons-/-about" transform="translate(50.000000, 48.000000)">
                    <g id="Group-3" stroke-width="1" fill="#FFFFFF" stroke="#99FF99">
                        <circle id="Oval-7" stroke-width="2" cx="18" cy="18" r="17"></circle>
                    </g>
                    <path d="M23.582,13.18 C24.3500038,13.5160017 24.734,13.9299975 24.734,14.422 C24.734,14.626001 24.638001,14.9529978 24.446,15.403 C24.253999,15.8530022 24.0920007,16.2459983 23.96,16.582 L21.98,21.406 C21.7999991,21.9340026 21.5000021,22.3059989 21.08,22.522 C20.8999991,22.6060004 20.6720014,22.648 20.396,22.648 C20.1199986,22.648 19.8530013,22.543001 19.595,22.333 C19.3369987,22.122999 19.1660004,21.9100011 19.082,21.694 L18.938,21.388 C18.8419995,21.1479988 18.4880031,20.2120082 17.876,18.58 C17.7559994,18.8680014 17.5790012,19.3389967 17.345,19.993 C17.1109988,20.6470033 16.9610003,21.0549992 16.895,21.217 C16.8289997,21.3790008 16.7870001,21.4869997 16.769,21.541 C16.7509999,21.5950003 16.7000004,21.6939993 16.616,21.838 C16.5319996,21.9820007 16.4360005,22.1079995 16.328,22.216 C16.0399986,22.5040014 15.7100019,22.648 15.338,22.648 C14.9659981,22.648 14.6540013,22.543001 14.402,22.333 C14.1499987,22.122999 13.9820004,21.9100011 13.898,21.694 L11.18,15.07 C11.0599994,14.7099982 11,14.4760005 11,14.368 C11,13.8879976 11.3419966,13.5100014 12.026,13.234 C12.4100019,13.0779992 12.7219988,13 12.962,13 C13.2020012,13 13.3969993,13.0509995 13.547,13.153 C13.6970007,13.2550005 13.8019997,13.3569995 13.862,13.459 C13.9220003,13.5610005 13.9699998,13.6659995 14.006,13.774 C14.210001,14.2540024 14.6359968,15.3819911 15.284,17.158 L16.346,14.242 C16.4180004,14.0019988 16.549999,13.7920009 16.742,13.612 C17.0900017,13.2639983 17.4439982,13.09 17.804,13.09 C18.1640018,13.09 18.4729987,13.185999 18.731,13.378 C18.9890013,13.570001 19.1659995,13.761999 19.262,13.954 L19.406,14.26 C20.006003,15.9400084 20.3599995,16.8999988 20.468,17.14 L21.566,14.152 C21.8540014,13.3839962 22.2859971,13 22.862,13 C23.0900011,13 23.3299987,13.0599994 23.582,13.18 Z" id="w" fill="#C0C0CC"></path>
                </g>
            </g>
        </g>
    </g>
</svg>