<?xml version="1.0" encoding="UTF-8"?>
<svg width="120px" height="21px" viewBox="0 0 120 21" version="1.1" xmlns="http://www.w3.org/2000/svg" xmlns:xlink="http://www.w3.org/1999/xlink">
    <!-- Generator: Sketch 50.2 (55047) - http://www.bohemiancoding.com/sketch -->
    <title>wasteless logo / color</title>
    <desc>Created with Sketch.</desc>
    <defs></defs>
    <g id="wasteless-logo-/-color" stroke="none" stroke-width="1" fill="none" fill-rule="evenodd">
        <path d="M108.924936,19.0559593 C108.600732,18.8513492 108.438427,18.5271458 108.438427,18.0825356 C108.438427,17.6391458 108.762631,16.9642983 109.411851,16.0588068 C109.599783,15.7687729 109.902427,15.6235525 110.32141,15.6235525 C110.739173,15.6235525 111.307444,15.8326373 112.025003,16.2508068 C112.742156,16.6697898 113.390969,16.8784678 113.971851,16.8784678 C115.013207,16.8784678 115.534292,16.6742644 115.534292,16.2638237 C115.534292,15.9400271 114.961953,15.7000271 113.818088,15.5466712 C112.742156,15.3929085 111.674359,14.9918237 110.615919,14.3426034 C110.120054,14.035078 109.710427,13.5526373 109.386224,12.8952814 C109.061614,12.2379254 108.899715,11.4565017 108.899715,10.5510102 C108.899715,7.85284068 110.75219,6.50395932 114.458359,6.50395932 C115.670969,6.50395932 116.917749,6.7944 118.198698,7.3744678 C118.796258,7.64823051 119.095241,7.98951864 119.095241,8.39955254 C119.095241,8.80958644 118.907308,9.31317966 118.531444,9.91073898 C118.15558,10.5087051 117.77158,10.8076881 117.378631,10.8076881 C117.17402,10.8076881 116.793681,10.6795525 116.238834,10.4232814 C115.68358,10.1670102 115.081546,10.0388746 114.432732,10.0388746 C113.425139,10.0388746 112.921546,10.2268068 112.921546,10.6022644 C112.921546,11.1152136 113.501614,11.4479593 114.663376,11.601722 C115.790563,11.7213153 116.883173,12.0459254 117.94202,12.5751458 C118.437478,12.8143322 118.85158,13.2280271 119.184732,13.8174508 C119.517885,14.4068746 119.684258,15.1455864 119.684258,16.0331797 C119.684258,16.9215864 119.517885,17.6769763 119.184732,18.3005695 C118.85158,18.9241627 118.386224,19.3891119 117.788664,19.6966373 C116.695647,20.2262644 115.3248,20.4906712 113.676936,20.4906712 C112.028664,20.4906712 110.445071,20.0131119 108.924936,19.0559593 M89.2253288,12.6519458 C89.8741424,12.6519458 90.1987525,12.3789966 90.1987525,11.831878 C90.1987525,11.4393356 90.0490576,11.1236746 89.7504814,10.8840814 C89.4514983,10.6453017 89.0243797,10.5253017 88.469939,10.5253017 C87.9146847,10.5253017 87.3634983,10.7522847 86.8176,11.2046237 C86.2704814,11.6569627 85.9975322,12.1394034 85.9975322,12.6519458 L89.2253288,12.6519458 Z M94.6306169,11.8961492 C94.6306169,12.9464542 94.3698712,13.7238102 93.8491932,14.2274034 C93.3281085,14.7314034 92.7517017,14.9827932 92.1199729,14.9827932 L86.0487864,14.9827932 C86.0487864,15.4615729 86.3306847,15.8626576 86.8940746,16.186861 C87.4578712,16.5114712 88.0216678,16.6741831 88.5850576,16.6741831 C89.5751593,16.6741831 90.3525153,16.5712678 90.9163119,16.3662508 L91.1978034,16.2637424 C91.6078373,16.0758102 91.9491254,15.9822508 92.2228881,15.9822508 C92.7687864,15.9822508 93.2386169,16.3662508 93.6315661,17.1350644 C93.853261,17.5959458 93.9643119,17.9888949 93.9643119,18.3130983 C93.9643119,19.8336407 92.1456,20.5930983 88.5077695,20.5930983 C87.2439051,20.5930983 86.1211932,20.3754712 85.1392271,19.9398102 C84.157261,19.5041492 83.392922,18.9281492 82.8466169,18.2109966 C81.7706847,16.827539 81.232922,15.2817763 81.232922,13.5741153 C81.232922,11.4222508 81.9285153,9.70197966 83.3205153,8.41248814 C84.7125153,7.12299661 86.4498712,6.47825085 88.5338034,6.47825085 C90.9073627,6.47825085 92.6491932,7.31499661 93.7597017,8.98848814 C94.3397695,9.87689492 94.6306169,10.8458441 94.6306169,11.8961492 Z M73.4961763,2.66103051 C73.4961763,2.26848814 73.5087864,1.97397966 73.5344136,1.77709831 C73.5600407,1.58143729 73.6328542,1.35486102 73.7524475,1.09858983 C73.9912271,0.637301695 74.6571254,0.406657627 75.7505492,0.406657627 C76.7923119,0.406657627 77.4411254,0.637301695 77.6973966,1.09858983 C77.8340746,1.35486102 77.9150237,1.58509831 77.9406508,1.79011525 C77.966278,1.9951322 77.9792949,2.29411525 77.9792949,2.68665763 L77.9792949,14.547539 C77.9792949,15.1621831 78.0305492,15.5510644 78.1326508,15.7129627 C78.2355661,15.8760814 78.4617356,15.9562169 78.8119729,15.9562169 C79.1618034,15.9562169 79.3965153,15.9692339 79.5161085,15.994861 C79.6357017,16.0204881 79.780922,16.0933017 79.9517695,16.2124881 C80.2930576,16.4349966 80.4639051,17.0410983 80.4639051,18.0316068 C80.4639051,19.1071322 80.2930576,19.7653017 79.9517695,20.0036746 C79.5075661,20.3116068 78.4487186,20.362861 76.7756339,20.1578441 C75.4601085,19.9869966 74.606278,19.5513356 74.2137356,18.8512678 C73.7349559,18.0149288 73.4961763,16.6827254 73.4961763,14.8550644 L73.4961763,2.66103051 Z M96.3979932,19.0559593 C96.0737898,18.8513492 95.9114847,18.5271458 95.9114847,18.0825356 C95.9114847,17.6391458 96.2356881,16.9642983 96.8849085,16.0588068 C97.0728407,15.7687729 97.3754847,15.6235525 97.7944678,15.6235525 C98.2122305,15.6235525 98.7805017,15.8326373 99.498061,16.2508068 C100.215214,16.6697898 100.864027,16.8784678 101.444908,16.8784678 C102.486264,16.8784678 103.007756,16.6742644 103.007756,16.2638237 C103.007756,15.9400271 102.43501,15.7000271 101.291146,15.5466712 C100.215214,15.3929085 99.1474169,14.9918237 98.0889763,14.3426034 C97.5931119,14.035078 97.1834847,13.5526373 96.8592814,12.8952814 C96.5346712,12.2379254 96.3727729,11.4565017 96.3727729,10.5510102 C96.3727729,7.85284068 98.2252475,6.50395932 101.931417,6.50395932 C103.144027,6.50395932 104.390807,6.7944 105.671756,7.3744678 C106.269315,7.64823051 106.568298,7.98951864 106.568298,8.39955254 C106.568298,8.80958644 106.380366,9.31317966 106.004502,9.91073898 C105.628637,10.5087051 105.244637,10.8076881 104.851688,10.8076881 C104.647078,10.8076881 104.266739,10.6795525 103.711892,10.4232814 C103.156637,10.1670102 102.554603,10.0388746 101.90579,10.0388746 C100.898197,10.0388746 100.394603,10.2268068 100.394603,10.6022644 C100.394603,11.1152136 100.974671,11.4479593 102.136434,11.601722 C103.26362,11.7213153 104.356231,12.0459254 105.415485,12.5751458 C105.910536,12.8143322 106.325044,13.2280271 106.65779,13.8174508 C106.990942,14.4068746 107.157315,15.1455864 107.157315,16.0331797 C107.157315,16.9215864 106.990942,17.6769763 106.65779,18.3005695 C106.325044,18.9241627 105.859281,19.3891119 105.261722,19.6966373 C104.168705,20.2262644 102.797858,20.4906712 101.149993,20.4906712 C99.5021288,20.4906712 97.9181288,20.0131119 96.3979932,19.0559593 Z M24.5415864,13.5229424 C24.5415864,14.0863322 24.7632814,14.5948068 25.2074847,15.0471458 C25.6516881,15.4998915 26.1894508,15.726061 26.8215864,15.726061 C27.4529085,15.726061 27.9784678,15.4954169 28.3970441,15.0341288 C28.8152136,14.5732475 29.0247051,14.0651797 29.0247051,13.5103322 C29.0247051,12.955078 28.8233492,12.4384678 28.4226712,11.9600949 C28.0211797,11.4821288 27.4830102,11.2429424 26.8085695,11.2429424 C26.1341288,11.2429424 25.5874169,11.4821288 25.1692475,11.9600949 C24.7506712,12.4384678 24.5415864,12.9595525 24.5415864,13.5229424 M29.2036881,8.19453559 C29.3061966,7.23819661 29.9810441,6.75982373 31.2278237,6.75982373 C31.893722,6.75982373 32.3891797,6.81107797 32.7133831,6.91358644 C33.0375864,7.01609492 33.2641627,7.19548475 33.3922983,7.45175593 C33.5204339,7.70762034 33.5973153,7.93419661 33.6229424,8.13026441 C33.6485695,8.32714576 33.6611797,8.62165424 33.6611797,9.01419661 L33.6611797,17.9804339 C33.6611797,18.3729763 33.6485695,18.6682983 33.6229424,18.8639593 C33.5973153,19.0604339 33.5245017,19.2870102 33.4053153,19.5428746 C33.165722,19.987078 32.5811797,20.2091797 31.6504678,20.2091797 C30.7193492,20.2091797 30.0961627,20.0936542 29.7800949,19.8630102 C29.4640271,19.6327729 29.2805695,19.2955525 29.2293153,18.8513492 C28.5975864,19.7568407 27.5428068,20.2091797 26.0657898,20.2091797 C24.5883661,20.2091797 23.2179254,19.534739 21.954061,18.1854508 C20.6901966,16.8365695 20.0584678,15.2692475 20.0584678,13.4847051 C20.0584678,11.7001627 20.6946712,10.1373153 21.967078,8.79616271 C23.239078,7.45582373 24.6351458,6.78545085 26.1552814,6.78545085 C26.7357559,6.78545085 27.2653831,6.88795932 27.7437559,7.09297627 C28.221722,7.29758644 28.5548746,7.48999322 28.7428068,7.66938305 C28.9303322,7.8483661 29.0840949,8.02409492 29.2036881,8.19453559 Z M35.8130441,19.0559593 C35.4884339,18.8513492 35.3265356,18.5271458 35.3265356,18.0825356 C35.3265356,17.6391458 35.650739,16.9642983 36.2999593,16.0588068 C36.4878915,15.7687729 36.7905356,15.6235525 37.2095186,15.6235525 C37.6272814,15.6235525 38.1955525,15.8326373 38.9131119,16.2508068 C39.6302644,16.6697898 40.279078,16.8784678 40.8599593,16.8784678 C41.9013153,16.8784678 42.4224,16.6742644 42.4224,16.2638237 C42.4224,15.9400271 41.850061,15.7000271 40.7057898,15.5466712 C39.6302644,15.3929085 38.5624678,14.9918237 37.5036203,14.3426034 C37.0081627,14.035078 36.5985356,13.5526373 36.2743322,12.8952814 C35.9493153,12.2379254 35.7878237,11.4565017 35.7878237,10.5510102 C35.7878237,7.85284068 37.6402983,6.50395932 41.3464678,6.50395932 C42.559078,6.50395932 43.8058576,6.7944 45.0868068,7.3744678 C45.6843661,7.64823051 45.9833492,7.98951864 45.9833492,8.39955254 C45.9833492,8.80958644 45.7954169,9.31317966 45.4195525,9.91073898 C45.0436881,10.5087051 44.6596881,10.8076881 44.266739,10.8076881 C44.0621288,10.8076881 43.6817898,10.6795525 43.1265356,10.4232814 C42.5716881,10.1670102 41.9696542,10.0388746 41.3208407,10.0388746 C40.3132475,10.0388746 39.8092475,10.2268068 39.8092475,10.6022644 C39.8092475,11.1152136 40.389722,11.4479593 41.5514847,11.601722 C42.6782644,11.7213153 43.7712814,12.0459254 44.8301288,12.5751458 C45.3255864,12.8143322 45.7396881,13.2280271 46.0728407,13.8174508 C46.4059932,14.4068746 46.5723661,15.1455864 46.5723661,16.0331797 C46.5723661,16.9215864 46.4059932,17.6769763 46.0728407,18.3005695 C45.7396881,18.9241627 45.2743322,19.3891119 44.6767729,19.6966373 C43.5837559,20.2262644 42.2129085,20.4906712 40.5650441,20.4906712 C38.9167729,20.4906712 37.3327729,20.0131119 35.8130441,19.0559593 Z M55.6666169,11.2941966 L54.0016678,11.1916881 L54.0016678,14.7266034 C54.0016678,15.1878915 54.0740746,15.5210441 54.2192949,15.726061 C54.3641085,15.9306712 54.6374644,16.0331797 55.0393627,16.0331797 C55.4400407,16.0331797 55.7475661,16.0466034 55.9615322,16.0718237 C56.1746847,16.0974508 56.4008542,16.1784 56.6404475,16.315078 C57.0329898,16.5375864 57.2294644,17.1091119 57.2294644,18.0312814 C57.2294644,19.1072136 56.9898712,19.7653831 56.5123119,20.0037559 C56.2560407,20.1237559 56.0294644,20.1961627 55.8333966,20.2217898 C55.636922,20.2474169 55.3505492,20.2604339 54.9750915,20.2604339 C53.1986847,20.2604339 51.8498034,19.8593492 50.9276339,19.0559593 C50.0054644,18.2537898 49.5441763,16.8959593 49.5441763,14.9828746 L49.5441763,11.1916881 C49.2195661,11.2429424 48.8693288,11.2685695 48.4938712,11.2685695 C48.1180068,11.2685695 47.8064136,11.1237559 47.5586847,10.8329085 C47.3109559,10.5428746 47.1872949,10.0478237 47.1872949,9.34734915 C47.1872949,8.64728136 47.2300068,8.13921356 47.3154305,7.82273898 C47.4008542,7.50707797 47.5204475,7.28090847 47.6742102,7.14423051 C47.9471593,6.92212881 48.2888542,6.81107797 48.6988881,6.81107797 L49.5441763,6.91358644 L49.5441763,4.27521356 C49.5441763,3.88226441 49.5567864,3.59223051 49.5828203,3.40429831 C49.6084475,3.2163661 49.6889898,3.01134915 49.8260746,2.78924746 C50.0477695,2.36253559 50.7055322,2.14897627 51.7985492,2.14897627 C52.9599051,2.14897627 53.6514305,2.46504407 53.8735322,3.09677288 C53.9589559,3.37012881 54.0016678,3.80538305 54.0016678,4.40334915 L54.0016678,6.91358644 C54.7529898,6.84565424 55.3208542,6.81107797 55.705261,6.81107797 C56.089261,6.81107797 56.3797017,6.82368814 56.5761763,6.84931525 C56.7722441,6.87494237 56.9988203,6.95629831 57.2550915,7.09297627 C57.6988881,7.31507797 57.9209898,7.9724339 57.9209898,9.06545085 C57.9209898,10.1417898 57.6907525,10.7991458 57.2294644,11.0379254 C56.9731932,11.1575186 56.7466169,11.2303322 56.5505492,11.2559593 C56.3540746,11.2815864 56.0591593,11.2941966 55.6666169,11.2941966 Z M66.4258169,12.6519458 C67.0746305,12.6519458 67.3992407,12.3789966 67.3992407,11.831878 C67.3992407,11.4393356 67.2495458,11.1236746 66.9509695,10.8840814 C66.6519864,10.6453017 66.2248678,10.5253017 65.6704271,10.5253017 C65.1151729,10.5253017 64.5643932,10.7522847 64.0180881,11.2046237 C63.4709695,11.6569627 63.1980203,12.1394034 63.1980203,12.6519458 L66.4258169,12.6519458 Z M71.8311051,11.8961492 C71.8311051,12.9464542 71.5707661,13.7238102 71.0496814,14.2274034 C70.5285966,14.7314034 69.9521898,14.9827932 69.320461,14.9827932 L63.2492746,14.9827932 C63.2492746,15.4615729 63.5311729,15.8626576 64.0945627,16.186861 C64.6583593,16.5114712 65.2221559,16.6741831 65.7855458,16.6741831 C66.7756475,16.6741831 67.5530034,16.5712678 68.1168,16.3662508 L68.3986983,16.2637424 C68.8083254,16.0758102 69.1496136,15.9822508 69.4233763,15.9822508 C69.9692746,15.9822508 70.4391051,16.3662508 70.8320542,17.1350644 C71.0537492,17.5959458 71.1648,17.9888949 71.1648,18.3130983 C71.1648,19.8336407 69.3464949,20.5930983 65.7086644,20.5930983 C64.4443932,20.5930983 63.3216814,20.3754712 62.3397153,19.9398102 C61.3577492,19.5041492 60.5934102,18.9281492 60.0471051,18.2109966 C58.9711729,16.827539 58.4334102,15.2817763 58.4334102,13.5741153 C58.4334102,11.4222508 59.1290034,9.70197966 60.5210034,8.41248814 C61.9130034,7.12299661 63.6503593,6.47825085 65.7342915,6.47825085 C68.1078508,6.47825085 69.8496814,7.31499661 70.9601898,8.98848814 C71.5406644,9.87689492 71.8311051,10.8458441 71.8311051,11.8961492 Z M17.9064,6.86229153 C18.9994169,7.34066441 19.5461288,7.92968136 19.5461288,8.62974915 C19.5461288,8.92059661 19.4090441,9.38554576 19.1360949,10.0258169 C18.862739,10.6664949 18.6320949,11.2262237 18.4445695,11.7041898 L15.6268068,18.5698169 C15.3705356,19.3207322 14.9430102,19.8503593 14.3458576,20.1578847 C14.0895864,20.2770712 13.7649763,20.3368678 13.3724339,20.3368678 C12.979078,20.3368678 12.5991458,20.1875797 12.2322305,19.8885966 C11.8649085,19.5900203 11.6212475,19.2869695 11.502061,18.9794441 L11.2970441,18.5437831 C11.1603661,18.2024949 10.6567729,16.8706983 9.78585763,14.5475797 C9.61501017,14.9576136 9.36321356,15.6279864 9.03006102,16.5586983 C8.69690847,17.4894102 8.48334915,18.0702915 8.38938305,18.3005288 C8.29582373,18.5311729 8.23602712,18.6849356 8.2104,18.7614102 C8.18477288,18.8382915 8.11195932,18.9794441 7.9923661,19.184461 C7.87277288,19.3890712 7.73650169,19.5688678 7.58273898,19.7222237 C7.17270508,20.1322576 6.70287458,20.3368678 6.17365424,20.3368678 C5.64402712,20.3368678 5.20023051,20.1875797 4.84185763,19.8885966 C4.48307797,19.5900203 4.24389153,19.2869695 4.12429831,18.9794441 L0.256230508,9.55191864 C0.0853830508,9.03978305 -4.06779661e-05,8.70663051 -4.06779661e-05,8.55327458 C-4.06779661e-05,7.87029153 0.486467797,7.33212203 1.45989153,6.93917288 C2.00660339,6.71747797 2.4504,6.60642712 2.79209492,6.60642712 C3.13378983,6.60642712 3.41121356,6.67924068 3.62477288,6.82364746 C3.83792542,6.96927458 3.98762034,7.11449492 4.07304407,7.25930847 C4.1584678,7.40493559 4.22680678,7.55422373 4.27806102,7.70757966 C4.56809492,8.39096949 5.17460339,9.99652881 6.09677288,12.5234441 L7.6083661,8.37388475 C7.71087458,8.03218983 7.8984,7.73320678 8.17175593,7.47734237 C8.66721356,6.98188475 9.17080678,6.73415593 9.68334915,6.73415593 C10.1954847,6.73415593 10.6352136,6.87124068 11.0025356,7.14418983 C11.3698576,7.41754576 11.6212475,7.69090169 11.7583322,7.96385085 L11.9633492,8.39951186 C12.8171797,10.7905627 13.3211797,12.1569356 13.4745356,12.4978169 L15.0373831,8.24574915 C15.4474169,7.15313898 16.062061,6.60642712 16.881722,6.60642712 C17.2059254,6.60642712 17.5480271,6.69185085 17.9064,6.86229153 Z" id="wasteless-logo" fill="#585894"></path>
    </g>
</svg>