<?xml version="1.0" encoding="UTF-8"?>
<svg width="60px" height="60px" viewBox="0 0 60 60" version="1.1" xmlns="http://www.w3.org/2000/svg" xmlns:xlink="http://www.w3.org/1999/xlink">
    <!-- Generator: Sketch 50.2 (55047) - http://www.bohemiancoding.com/sketch -->
    <title>icons / reducing food waste / active</title>
    <desc>Created with Sketch.</desc>
    <defs></defs>
    <g id="icons-/-reducing-food-waste-/-active" stroke="none" stroke-width="1" fill="none" fill-rule="evenodd">
        <g id="Group-3">
            <circle id="Oval-7" stroke="#99FF99" stroke-width="4" fill="#FFFFFF" cx="30" cy="30" r="28"></circle>
            <path d="M30,28 L30,28 C31.1045695,28 32,28.8954305 32,30 L32,46 C32,47.1045695 31.1045695,48 30,48 L30,48 C28.8954305,48 28,47.1045695 28,46 L28,30 C28,28.8954305 28.8954305,28 30,28 Z M30,16 C29.285692,16 27.7069885,17.9859978 26.3525908,21.3146579 C24.9320532,24.8058679 24,29.0488906 24,31.9956709 C24,33.6945647 24.2795269,35.0786396 24.8696037,36.0048356 C25.5,36.9943181 27.5992061,38 30,38 C32.3947764,38 34.5,36.9943181 35.1232535,36.0173859 C35.7165141,35.0874669 36,33.701888 36,31.9956709 C36,29.0488906 35.0679468,24.8058679 33.6474092,21.3146579 C32.2930115,17.9859978 30.714308,16 30,16 Z M30,12 C35.2573823,12 40,23.6589351 40,32 C40,34.3678798 39.5275163,36.3760703 38.5970287,38.0059541 C36.8561118,41.0554217 33.7142513,42 30,42 C26.2759808,42 23.1279088,41.0478667 21.3901186,37.983365 C20.4680963,36.357427 20,34.3569103 20,32 C20,23.6589351 24.7426177,12 30,12 Z" id="leaf" fill="#C0C0CC" fill-rule="nonzero"></path>
        </g>
    </g>
</svg>