<?xml version="1.0" encoding="UTF-8"?>
<svg width="32px" height="32px" viewBox="0 0 32 32" version="1.1" xmlns="http://www.w3.org/2000/svg" xmlns:xlink="http://www.w3.org/1999/xlink">
    <!-- Generator: Sketch 50.2 (55047) - http://www.bohemiancoding.com/sketch -->
    <title>icons / problem</title>
    <desc>Created with Sketch.</desc>
    <defs></defs>
    <g id="icons-/-problem" stroke="none" stroke-width="1" fill="none" fill-rule="evenodd">
        <g fill="#FF627B" id="Oval">
            <path d="M16,32 C7.163444,32 0,24.836556 0,16 C0,7.163444 7.163444,0 16,0 C24.836556,0 32,7.163444 32,16 C32,24.836556 24.836556,32 16,32 Z M16,8 C14.8954305,8 14,8.8954305 14,10 L14,16 C14,17.1045695 14.8954305,18 16,18 C17.1045695,18 18,17.1045695 18,16 L18,10 C18,8.8954305 17.1045695,8 16,8 Z M16,20 C14.8954305,20 14,20.8954305 14,22 C14,23.1045695 14.8954305,24 16,24 C17.1045695,24 18,23.1045695 18,22 C18,20.8954305 17.1045695,20 16,20 Z"></path>
        </g>
    </g>
</svg>